<?xml version="1.0" encoding="UTF-8"?>
<svg version="1.1" xmlns="http://www.w3.org/2000/svg" width="792" height="612">
<path d="M0 0 C3.43662038 2.89702907 6.73521087 5.91140584 10 9 C10.81210937 9.74765625 11.62421875 10.4953125 12.4609375 11.265625 C24.82907622 23.04852056 33.18036191 37.24626915 41.38476562 52.08007812 C43.66573703 56.20347867 45.96889205 60.31434739 48.2722168 64.42529297 C49.45952842 66.54733117 50.64332568 68.67133979 51.82348633 70.79736328 C54.60395007 75.79433062 57.42615268 80.74947196 60.40234375 85.6328125 C60.92626709 86.50083496 61.45019043 87.36885742 61.98999023 88.26318359 C62.970044 89.87722202 63.96488364 91.48240884 64.97680664 93.07666016 C65.40727295 93.78870605 65.83773926 94.50075195 66.28125 95.234375 C66.85456055 96.15041504 66.85456055 96.15041504 67.43945312 97.08496094 C68.50881257 100.7382952 66.2034113 103.62309663 64.49121094 106.7956543 C63.91145508 107.79508057 63.33169922 108.79450684 62.734375 109.82421875 C62.09113281 110.93603516 61.44789063 112.04785156 60.78515625 113.19335938 C60.10678282 114.3580799 59.42839734 115.52279341 58.75 116.6875 C57.76580078 118.3880957 57.76580078 118.3880957 56.76171875 120.12304688 C55.46588445 122.3579102 54.1645665 124.58960416 52.85742188 126.81787109 C51.64858371 128.88884858 50.4562181 130.9695588 49.28320312 133.06103516 C48.50106445 134.43267822 48.50106445 134.43267822 47.703125 135.83203125 C47.25098633 136.64003174 46.79884766 137.44803223 46.33300781 138.28051758 C45.89311523 138.84794678 45.45322266 139.41537598 45 140 C44.01 140 43.02 140 42 140 C41.55309814 139.15107178 41.10619629 138.30214355 40.64575195 137.42749023 C31.79057122 120.62017669 22.82639068 103.90667694 13.37548828 87.42480469 C12.0984953 85.17363425 10.85250197 82.90916305 9.62109375 80.6328125 C-5.40022446 52.94626636 -25.11566331 29.12810024 -55.625 18.5 C-65.59767965 15.71951311 -76.47682054 15.61105642 -86 20 C-94.63397766 24.8880191 -99.35071218 32.58428788 -102 42 C-104.78758663 56.17023202 -102.92850097 69.68033178 -95.26171875 81.9921875 C-77.44748326 105.682967 -46.90148795 117.71359873 -21 130 C-21 130.66 -21 131.32 -21 132 C-22.73621939 133.03930759 -24.5169783 134.00437627 -26.3125 134.9375 C-43.18138279 144.58253181 -55.62304312 163.54531167 -60.9375 182.0625 C-63.49154239 193.72291972 -60.43265279 203.73123897 -54.25 213.6875 C-47.7585319 222.88239746 -37.34925764 230.56294973 -26.140625 232.75 C-9.80916034 234.65732434 4.29288644 229.13288231 17.125 219.1875 C30.15762275 208.27216454 39.00971589 196.01752883 47.00390625 181.1484375 C47.56612381 180.10617508 48.12834137 179.06391266 48.70759583 177.99006653 C55.12329366 166.01734044 61.16239639 153.86001263 67.1875 141.6875 C69.38645762 137.25247835 71.58823129 132.81886996 73.79296875 128.38671875 C74.32263245 127.32157547 74.85229614 126.25643219 75.39801025 125.15901184 C79.04725673 117.84533904 82.8062331 110.59724492 86.6410675 103.37945557 C89.50884976 97.97178316 92.22851243 92.5125899 94.89038086 87.00024414 C100.72683047 74.95974744 107.15734149 63.83022274 115 53 C115.56364258 52.21544434 116.12728516 51.43088867 116.70800781 50.62255859 C123.4446303 41.27275151 130.37158703 32.07479592 137.55859375 23.06640625 C139.0677338 21.17092635 140.562958 19.26415663 142.03515625 17.33984375 C157.59588266 -2.82200094 176.4773191 -15.76727817 202 -20 C203.12921875 -20.19722656 203.12921875 -20.19722656 204.28125 -20.3984375 C226.26594577 -23.52702882 253.71673216 -21.95296366 272.37890625 -9.05859375 C287.83023656 3.07680278 296.75994458 18.60682965 299.3125 38.1875 C301.37630323 57.0937138 298.28401554 75.85063449 290 93 C289.55914063 93.93328125 289.11828125 94.8665625 288.6640625 95.828125 C285.08751164 102.90218693 280.51525997 108.35043987 275 114 C274.2265625 114.82371094 273.453125 115.64742187 272.65625 116.49609375 C264.65340845 124.82372595 255.64535372 131.67565131 246 138 C247.36423326 142.31357566 249.01605489 146.37757251 250.875 150.5 C259.5679225 170.27526784 263.16444964 194.63301996 256.390625 215.55078125 C251.99065655 226.46418615 247.00850894 236.24761769 239 245 C238.40960937 245.68191406 237.81921875 246.36382812 237.2109375 247.06640625 C223.35336162 262.1328345 200.98138378 270.96338365 180.81054688 272.1262207 C152.19026265 273.06610702 127.49679332 264.36853594 106.234375 245.12109375 C101.30847251 240.47937794 97.06335942 235.41016029 93 230 C92.40832031 229.22269531 91.81664062 228.44539062 91.20703125 227.64453125 C89.75 225.5625 89.75 225.5625 88 222 C89.14146944 218.08198329 91.23504861 214.66337592 93.265625 211.140625 C93.90886719 210.02429688 94.55210937 208.90796875 95.21484375 207.7578125 C95.71733643 206.8920459 95.71733643 206.8920459 96.22998047 206.00878906 C97.23746763 204.27160918 98.23792159 202.53035653 99.23828125 200.7890625 C102.94857251 194.37166013 106.7812062 188.09645414 111 182 C113.90961476 183.45480738 114.05318608 185.36306748 115.1875 188.375 C122.7463928 206.92065559 135.99873238 219.06576545 154.25390625 226.9375 C165.03002824 231.10692415 177.80930218 234.32680759 189 230 C202.71461022 223.0696338 210.95855298 213.56435942 216.0546875 199.0859375 C219.40518198 188.14837288 217.61114609 177.50767024 212.375 167.3125 C203.93730668 153.18763593 192.10449475 142.1311051 178.203125 133.55859375 C177.47609375 133.04425781 176.7490625 132.52992188 176 132 C176 131.34 176 130.68 176 130 C177.0415625 129.6596875 178.083125 129.319375 179.15625 128.96875 C200.29716363 121.89192928 220.9824535 111.41546277 236.68359375 95.234375 C239 93 239 93 241 93 C241.26425781 92.40445313 241.52851562 91.80890625 241.80078125 91.1953125 C243.04501209 88.91760002 244.27916908 87.61302221 246.1875 85.875 C255.01722643 77.24720079 262.9159233 65.10708188 263.3125 52.4375 C263.13990841 42.64292753 259.37214245 35.2181056 252.62890625 28.23046875 C242.98022783 20.04414576 231.98678767 17.47672158 219.65625 17.6875 C199.76564485 19.38755172 183.44058253 32.83546228 170.89453125 47.453125 C168.56251255 50.27631224 166.27759151 53.13274079 164 56 C163.11243112 57.09672008 162.22439559 58.19306265 161.3359375 59.2890625 C133.03845585 94.43772456 113.51141153 136.57928237 93.63012695 176.8269043 C87.66530465 188.90053699 81.29167068 200.6637092 74.5390625 212.31445312 C73.03556651 214.93793914 71.57487313 217.58094697 70.125 220.234375 C64.70542507 230.06290153 59.11285363 238.19552969 51 246 C50.20078125 246.80695313 49.4015625 247.61390625 48.578125 248.4453125 C42.12601317 254.66548567 34.91667275 258.95291169 27 263 C26.05640625 263.4846875 25.1128125 263.969375 24.140625 264.46875 C0.26245735 275.53095196 -28.2980098 274.51162887 -52.6875 265.875 C-72.76785801 258.31600302 -88.03511626 245.00766366 -97.59765625 225.7890625 C-107.55970392 203.19293105 -103.9029269 177.89759468 -95.29589844 155.50561523 C-93.41451827 150.80634832 -91.28371553 146.27481812 -88.8828125 141.8203125 C-87.85454392 140.03725904 -87.85454392 140.03725904 -88 138 C-88.65484375 137.67128906 -89.3096875 137.34257812 -89.984375 137.00390625 C-113.5817339 124.70528275 -131.68619871 105.4093993 -140 80 C-146.5195121 58.97842359 -145.27546805 36.08015011 -135.3125 16.375 C-131.95952733 10.51993466 -127.75153005 5.75947576 -123 1 C-122.31164062 0.30003906 -121.62328125 -0.39992188 -120.9140625 -1.12109375 C-111.07270667 -10.50513751 -98.9172787 -16.15972796 -86 -20 C-84.9378125 -20.3196875 -83.875625 -20.639375 -82.78125 -20.96875 C-53.04091259 -28.61626533 -23.51047205 -18.62384777 0 0 Z " fill="#F2CCD0" transform="translate(318,39)"/>
<path d="M0 0 C0.495 6.435 0.495 6.435 1 13 C1.66 12.29875 2.32 11.5975 3 10.875 C11.05120721 2.86940869 17.7167634 -0.17286734 29.09765625 -0.36328125 C33.63654798 0.20484383 36.19446392 2.12733591 39.25 5.4375 C41.92977915 9.36146233 42.12505241 12.62787073 42.15771484 17.31591797 C42.16797699 18.3773703 42.17823914 19.43882263 42.18881226 20.53244019 C42.19611359 21.6741568 42.20341492 22.81587341 42.2109375 23.9921875 C42.23900225 26.41276722 42.26766669 28.83334006 42.296875 31.25390625 C42.33815485 35.06786942 42.37504626 38.88170335 42.40136719 42.69580078 C42.42897923 46.37819932 42.47484692 50.06001401 42.5234375 53.7421875 C42.5283168 55.44868973 42.5283168 55.44868973 42.53329468 57.18966675 C42.62233855 62.92880171 42.88111102 66.9958975 46 72 C46 72.66 46 73.32 46 74 C39.07 74 32.14 74 25 74 C25.66 72.35 26.32 70.7 27 69 C27.99644211 66.01067368 28.13794665 63.99693055 28.16113281 60.87353516 C28.17074036 59.82880035 28.1803479 58.78406555 28.19024658 57.70767212 C28.19449646 56.57953094 28.19874634 55.45138977 28.203125 54.2890625 C28.20882507 53.12877533 28.21452515 51.96848816 28.22039795 50.77304077 C28.22984923 48.31680209 28.23638243 45.86055072 28.24023438 43.40429688 C28.24994338 39.64691059 28.28096781 35.89007045 28.3125 32.1328125 C28.31902973 29.74739908 28.32428032 27.36198175 28.328125 24.9765625 C28.3466452 23.29042343 28.3466452 23.29042343 28.36553955 21.57022095 C28.36253845 20.51918182 28.35953735 19.4681427 28.35644531 18.38525391 C28.36009094 17.46386627 28.36373657 16.54247864 28.36749268 15.59317017 C27.92194944 12.44924512 26.84510975 10.56255874 25 8 C21.74032806 6.37016403 18.52222349 6.46576504 15 7 C8.81137693 9.51302721 3.51943204 14.37511855 0 20 C-0.86857675 23.59079174 -0.75899011 26.95924967 -0.5703125 30.6328125 C-0.53283401 32.12601517 -0.53283401 32.12601517 -0.49459839 33.64938354 C-0.43518059 35.74255267 -0.35855749 37.835297 -0.265625 39.92724609 C-0.12513013 43.12204082 -0.03853885 46.31483772 0.0390625 49.51171875 C0.10362852 51.55218519 0.17123346 53.59255821 0.2421875 55.6328125 C0.2705368 56.5829422 0.29888611 57.5330719 0.32809448 58.51199341 C0.57691453 63.76381661 1.28460573 67.3696823 4 72 C4 72.66 4 73.32 4 74 C-2.93 74 -9.86 74 -17 74 C-16.34 72.35 -15.68 70.7 -15 69 C-13.98026871 65.94080612 -13.88466398 63.87581975 -13.90234375 60.67578125 C-13.90556641 59.64775391 -13.90878906 58.61972656 -13.91210938 57.56054688 C-13.92048828 56.48869141 -13.92886719 55.41683594 -13.9375 54.3125 C-13.94201172 53.22904297 -13.94652344 52.14558594 -13.95117188 51.02929688 C-13.96296257 48.35280915 -13.97941937 45.67643223 -14 43 C-14.40089844 43.67804688 -14.80179687 44.35609375 -15.21484375 45.0546875 C-19.50073372 52.07149602 -24.23932796 58.1362748 -30 64 C-30.58652344 64.59941406 -31.17304688 65.19882812 -31.77734375 65.81640625 C-39.16948471 72.75632211 -47.2910104 74.59195777 -57.24243164 74.39575195 C-66.757254 73.97400166 -71.79006929 71.14035014 -78.7265625 64.609375 C-87.78449187 54.21298871 -87.81038779 41.03223621 -87 28 C-85.73518522 19.53217223 -81.53585894 11.48646874 -74.75 6.125 C-65.50839776 0.3062134 -54.78703169 -0.20552373 -44.19921875 1.43359375 C-36.58095955 3.34112055 -30.43104227 7.23597027 -26.140625 13.87890625 C-23.27529238 19.32986044 -21.79765231 23.88586869 -21 30 C-22.20011719 30.34256836 -23.40023437 30.68513672 -24.63671875 31.03808594 C-29.11932189 32.31988422 -33.5988858 33.6120386 -38.07763672 34.90722656 C-40.01075105 35.46471283 -41.94466178 36.01944567 -43.87939453 36.57128906 C-46.67177478 37.36828992 -49.46107253 38.17538602 -52.25 38.984375 C-53.10553467 39.22621521 -53.96106934 39.46805542 -54.8425293 39.71722412 C-60.24991052 41.29904645 -65.07743334 43.23940902 -70 46 C-71.77886346 49.55772692 -70.98034845 53.24598276 -70 57 C-66.93858031 62.48031919 -63.05899505 66.98033498 -57 69 C-49.38491484 69.68817807 -43.36852309 69.40361772 -37 65 C-36.44183594 64.63390625 -35.88367188 64.2678125 -35.30859375 63.890625 C-29.29505797 59.37000877 -25.29096442 52.83375396 -21.15283203 46.65869141 C-20 45 -20 45 -18.02734375 42.60546875 C-12.25338466 35.02970683 -13.09248867 25.40220645 -13.65185547 16.29101562 C-14.12533057 13.17524402 -15.49179062 10.7391435 -17 8 C-16.67 7.01 -16.34 6.02 -16 5 C-13.67359006 3.95590957 -11.47250358 3.10309582 -9.0625 2.3125 C-8.41603516 2.08755859 -7.76957031 1.86261719 -7.10351562 1.63085938 C-2.32990597 0 -2.32990597 0 0 0 Z M-67.6875 9.6875 C-73.7166729 17.50022244 -74.16092698 26.88058163 -74.0625 36.375 C-74.05798828 37.20644531 -74.05347656 38.03789062 -74.04882812 38.89453125 C-74.03713164 40.92971897 -74.01919935 42.96486923 -74 45 C-72.99710938 44.27296875 -71.99421875 43.5459375 -70.9609375 42.796875 C-64.72355616 38.89885528 -57.6387425 37.22951143 -50.625 35.25 C-48.55865169 34.65459519 -46.49332242 34.05578406 -44.42831421 33.45574951 C-42.57186083 32.91821838 -40.71299021 32.38905639 -38.85400391 31.86035156 C-36.08754314 31.11461621 -36.08754314 31.11461621 -34 30 C-34.98768276 20.32955391 -36.36733316 13.30176207 -43.625 6.5625 C-51.57501924 1.33222418 -61.22604598 3.22604598 -67.6875 9.6875 Z " fill="#EDC5C8" transform="translate(286,363)"/>
<path d="M0 0 C5.35275303 -0.07482879 10.70519351 -0.12891907 16.05834961 -0.16479492 C17.8748099 -0.17976973 19.69123474 -0.20015684 21.50756836 -0.22631836 C48.86164587 -0.61010322 48.86164587 -0.61010322 59 9 C63.43876656 14.83172844 64.84168137 20.78013039 64.46875 28.04296875 C63.47237426 34.32843907 61.33057659 39.01812036 56.44140625 43.17578125 C54.01172065 44.89551617 51.56697331 46.49470691 49 48 C49.79664063 48.35191406 50.59328125 48.70382812 51.4140625 49.06640625 C59.11826574 52.65607759 64.10872601 55.90585058 68.3125 63.3125 C70.39704453 71.46117407 70.97381617 79.59837982 66.80859375 87.1640625 C61.50909732 94.8750464 54.82351736 98.24418436 45.88330078 100.39575195 C37.41308494 101.7137316 28.79878266 101.30191553 20.25 101.1875 C18.28126026 101.17242319 16.31250933 101.1587401 14.34375 101.14648438 C9.56221942 101.11372255 4.78123577 101.06210638 0 101 C1 99 2 97 3 95 C3.10890989 92.21418352 3.15732832 89.45298514 3.16113281 86.66650391 C3.16609772 85.80456924 3.17106262 84.94263458 3.17617798 84.05458069 C3.19081647 81.19523325 3.19760429 78.33594129 3.203125 75.4765625 C3.20887492 73.49360146 3.21463267 71.51064044 3.22039795 69.52767944 C3.23091264 65.36643209 3.23675229 61.20520409 3.24023438 57.04394531 C3.2457211 51.70831133 3.269751 46.37293229 3.29820633 41.03737831 C3.31681722 36.94018809 3.32203748 32.84305947 3.32357025 28.74583054 C3.32660065 26.77861512 3.33464214 24.81140088 3.34775543 22.84422684 C3.3647841 20.0933815 3.36294353 17.34316161 3.35644531 14.59228516 C3.3656601 13.77759262 3.37487488 12.96290009 3.3843689 12.1235199 C3.35187327 7.73875523 3.01680625 5.24190478 0 2 C0 1.34 0 0.68 0 0 Z M18 3 C18 17.52 18 32.04 18 47 C33.44505036 47.75205878 33.44505036 47.75205878 46.5 41.1875 C51.69679055 35.79431911 51.4308548 28.43788783 51.3125 21.41796875 C50.73548995 15.10692135 48.56202279 11.63302383 44.25 7.125 C35.77101032 1.58104521 28.4381881 3 18 3 Z M18 50 C18 65.84 18 81.68 18 98 C34.32747435 98.50889807 34.32747435 98.50889807 48.9375 93.3125 C54.33938016 87.25584648 56.35169656 80.28999802 56.21484375 72.24609375 C55.53824818 65.17259457 53.43159134 58.75264242 48 54 C38.46099398 48.32624178 29.27681787 50 18 50 Z " fill="#EFC8CC" transform="translate(124,336)"/>
<path d="M0 0 C0 6.27 0 12.54 0 19 C3.63 19 7.26 19 11 19 C11 19.99 11 20.98 11 22 C7.37 22 3.74 22 0 22 C0.08547999 29.77138165 0.17921853 37.54255756 0.28752708 45.31364918 C0.33748759 48.92203229 0.38381744 52.53038617 0.421875 56.13891602 C0.45873124 59.62091128 0.5050917 63.10266177 0.55806351 66.58444786 C0.58563386 68.56027114 0.6033425 70.536224 0.62094116 72.51216125 C0.64081085 73.71317978 0.66068054 74.9141983 0.68115234 76.15161133 C0.69447601 77.21084305 0.70779968 78.27007477 0.7215271 79.36140442 C0.81777733 82.22966673 0.81777733 82.22966673 3 85 C7.35300737 85.40305624 10.22294505 85.15831711 14 83 C14.99 83 15.98 83 17 83 C15.78774852 86.63675444 14.9875632 86.93483486 11.6875 88.6875 C5.82051847 91.46925848 0.40061961 92.02107373 -6 91 C-10.25163556 88.7041168 -11.48617495 86.46450098 -13 82 C-13.2759478 80.07096868 -13.48449903 78.1310968 -13.625 76.1875 C-13.69976563 75.21167969 -13.77453125 74.23585938 -13.8515625 73.23046875 C-13.90054688 72.49441406 -13.94953125 71.75835937 -14 71 C-14.38929688 71.56847656 -14.77859375 72.13695312 -15.1796875 72.72265625 C-21.84570106 81.92298373 -30.67924373 88.74916728 -42 91 C-54.32732505 92.26143922 -65.13526341 91.73257433 -75.25 84 C-82.20300676 77.48420056 -85.84507795 68.31787609 -86.203125 58.92578125 C-86.41959191 46.25424686 -85.46669968 36.08415881 -77 26 C-70.46335189 19.57550027 -62.03023755 17.8570503 -53.125 17.5625 C-44.25942389 17.78438058 -35.11587962 19.6926086 -28.53125 26.03515625 C-23.56255013 32.41080939 -21.02566397 39.06253308 -20 47 C-21.20011719 47.34256836 -22.40023437 47.68513672 -23.63671875 48.03808594 C-28.11932189 49.31988422 -32.5988858 50.6120386 -37.07763672 51.90722656 C-39.01075105 52.46471283 -40.94466178 53.01944567 -42.87939453 53.57128906 C-45.67177478 54.36828992 -48.46107253 55.17538602 -51.25 55.984375 C-52.10553467 56.22621521 -52.96106934 56.46805542 -53.8425293 56.71722412 C-59.24991052 58.29904645 -64.07743334 60.23940902 -69 63 C-70.47437939 65.94875877 -70.36089509 67.69179497 -70 71 C-67.41320037 77.58879906 -64.04508749 81.41772593 -58 85 C-51.18174158 87.27275281 -41.72907399 87.18873788 -35.0625 84.375 C-33.68306238 83.62823678 -32.32722561 82.83604763 -31 82 C-30.30390625 81.5875 -29.6078125 81.175 -28.890625 80.75 C-21.17308658 75.64365879 -17.34370554 68.56946347 -15.375 59.6484375 C-13.7816792 51.80771661 -13.4495732 44.10657673 -13.3125 36.125 C-13.27920401 34.74345991 -13.24470386 33.3619483 -13.20898438 31.98046875 C-13.12756065 28.65372805 -13.05807388 25.327216 -13 22 C-14.98 22 -16.96 22 -19 22 C-19 21.01 -19 20.02 -19 19 C-17.02 19 -15.04 19 -13 19 C-13.45445964 17.58208592 -13.91374944 16.16571954 -14.375 14.75 C-14.63023437 13.96109375 -14.88546875 13.1721875 -15.1484375 12.359375 C-15.95173667 10.13372042 -16.89711662 8.09068328 -18 6 C-14.66666667 4.66666667 -11.33333333 3.33333333 -8 2 C-7.12730469 1.62617188 -6.25460937 1.25234375 -5.35546875 0.8671875 C-3 0 -3 0 0 0 Z M-66.6875 26.6875 C-72.7166729 34.50022244 -73.16092698 43.88058163 -73.0625 53.375 C-73.05798828 54.20644531 -73.05347656 55.03789062 -73.04882812 55.89453125 C-73.03713164 57.92971897 -73.01919935 59.96486923 -73 62 C-71.99710937 61.27296875 -70.99421875 60.5459375 -69.9609375 59.796875 C-63.72355616 55.89885528 -56.6387425 54.22951143 -49.625 52.25 C-47.55865169 51.65459519 -45.49332242 51.05578406 -43.42831421 50.45574951 C-41.57186083 49.91821838 -39.71299021 49.38905639 -37.85400391 48.86035156 C-35.08754314 48.11461621 -35.08754314 48.11461621 -33 47 C-33.54756295 38.51277435 -34.91326031 30.31357229 -41.5625 24.4375 C-49.46493572 18.22467191 -59.86118155 19.86118155 -66.6875 26.6875 Z " fill="#EDC5C9" transform="translate(555,346)"/>
<path d="M0 0 C0.00808685 1.12451065 0.01617371 2.2490213 0.02450562 3.40760803 C0.10206047 14.01586783 0.18982339 24.62400085 0.28752708 35.23209476 C0.33742836 40.68554717 0.38375902 46.13898078 0.421875 51.5925293 C0.45880561 56.85755057 0.50518681 62.12241225 0.55806351 67.38729668 C0.57656613 69.39385612 0.59168927 71.40044972 0.60334396 73.40706062 C0.62027713 76.22214147 0.64932927 79.03686008 0.68115234 81.85180664 C0.68331253 82.67755692 0.68547272 83.50330719 0.68769836 84.3540802 C0.78163215 90.87783883 2.05415277 96.10830553 5 102 C-0.94 102 -6.88 102 -13 102 C-13.33 101.01 -13.66 100.02 -14 99 C-14.598125 99.474375 -15.19625 99.94875 -15.8125 100.4375 C-22.27492927 103.60535749 -29.8941869 103.70922395 -36.8046875 101.8515625 C-43.81220807 99.13334278 -49.53197639 94.71758904 -53 88 C-58.35947761 75.11923869 -59.04845792 60.07421155 -54 47 C-50.37044116 38.84124807 -44.14866798 33.05946719 -35.875 29.75 C-27.44373483 28.11814223 -20.73399201 28.33602129 -13 32 C-13.08125925 28.76983274 -13.19406605 25.54150112 -13.3125 22.3125 C-13.34633789 20.94448242 -13.34633789 20.94448242 -13.38085938 19.54882812 C-13.58248303 14.50823679 -13.9201704 11.18625632 -17 7 C-17 6.34 -17 5.68 -17 5 C-14.73117913 4.16080602 -12.46022973 3.32848276 -10.1875 2.5 C-9.54490234 2.26152344 -8.90230469 2.02304687 -8.24023438 1.77734375 C-5.35066261 0.72931254 -3.09923939 0 0 0 Z M-38.1875 38.1875 C-47.00035048 51.86261282 -44.80541121 70.22348147 -42.046875 85.44140625 C-40.32928722 91.27992292 -37.24747604 95.85151437 -32 99 C-27.75273483 100.1295095 -24.30818061 100.52327224 -20.1875 98.875 C-16.78187807 95.95589549 -14.42676855 93.28030566 -13 89 C-12.89873937 87.48248785 -12.85168423 85.9610184 -12.83886719 84.44018555 C-12.82925964 83.51880295 -12.8196521 82.59742035 -12.80975342 81.64811707 C-12.80550354 80.65435562 -12.80125366 79.66059418 -12.796875 78.63671875 C-12.78832489 77.09960991 -12.78832489 77.09960991 -12.77960205 75.53144836 C-12.77015285 73.36187777 -12.76361839 71.19229283 -12.75976562 69.02270508 C-12.75006835 65.71084404 -12.71904719 62.39960578 -12.6875 59.08789062 C-12.68096894 56.97917035 -12.67571887 54.87044564 -12.671875 52.76171875 C-12.6595282 51.77403 -12.6471814 50.78634125 -12.63446045 49.76872253 C-12.65590151 43.11843351 -13.55666927 38.7307814 -18.125 33.625 C-25.87887932 29.24237256 -32.27712839 32.27712839 -38.1875 38.1875 Z " fill="#EEC7CA" transform="translate(461,335)"/>
<path d="M0 0 C37.76 0 37.76 0 45.6953125 7.40234375 C49.28380925 11.79664067 49.43027343 15.71810361 49.3125 21.24609375 C48.69380749 26.69832153 46.09559086 30.22625927 42 33.8125 C39.65716688 35.52081582 37.58716468 36.7677513 35 38 C36.25103516 38.32871094 36.25103516 38.32871094 37.52734375 38.6640625 C46.85574417 41.29268393 55.55128484 44.50000435 61 53 C64.42030126 59.90278981 64.07096312 69.40191283 62.34765625 76.80078125 C58.75522647 85.72789216 52.24363318 90.33584925 43.6484375 94.0546875 C29.82058275 98.99029347 14.02006115 96 0 96 C0 64.32 0 32.64 0 0 Z M11 3 C11 14.55 11 26.1 11 38 C23.53427707 38.71122758 23.53427707 38.71122758 33.78125 33.34765625 C38.7588775 27.79478406 39.36744517 23.32836759 39.26953125 15.94921875 C38.83219676 11.1638921 37.13649877 8.78791213 33.515625 5.7578125 C26.31960612 1.14089773 20.02908409 3 11 3 Z M11 41 C11 58.49 11 75.98 11 94 C28.89326435 95.088977 28.89326435 95.088977 44.10546875 88.3046875 C50.17226942 82.12530702 52.07863477 74.92540032 52.375 66.4375 C52.11033064 58.29028662 50.00178882 51.73504265 44 46 C33.39794254 39.29038149 24.24629246 41 11 41 Z " fill="#B1B3BB" transform="translate(172,453)"/>
<path d="M0 0 C5.73834597 6.43390306 5.49148087 14.17547076 5.46875 22.328125 C5.47958618 23.46151306 5.49042236 24.59490112 5.50158691 25.76263428 C5.54730144 30.58618194 5.55897313 35.40967278 5.57373047 40.23339844 C5.58939138 43.76517013 5.62237007 47.29648881 5.65625 50.828125 C5.65322876 51.91981995 5.65020752 53.01151489 5.64709473 54.1362915 C5.65720581 55.15124695 5.66731689 56.16620239 5.67773438 57.21191406 C5.67978882 58.10267639 5.68184326 58.99343872 5.68395996 59.91119385 C6.13571796 62.77696535 7.2511938 64.09589325 9.0625 66.3125 C9.0625 66.9725 9.0625 67.6325 9.0625 68.3125 C3.1225 68.3125 -2.8175 68.3125 -8.9375 68.3125 C-9.2675 66.9925 -9.5975 65.6725 -9.9375 64.3125 C-11.3915625 65.3025 -11.3915625 65.3025 -12.875 66.3125 C-17.37913599 68.58071185 -21.55569063 68.72864921 -26.5 68.75 C-27.21986084 68.75966797 -27.93972168 68.76933594 -28.68139648 68.77929688 C-35.75505135 68.66928921 -41.90004958 66.4898796 -46.9375 61.3125 C-50.41238698 54.92094081 -50.78005017 48.80557238 -48.875 41.8125 C-45.73612147 33.33176857 -39.24464679 29.51075677 -31.34765625 25.796875 C-24.31452705 22.73549001 -17.21739629 19.7391321 -9.9375 17.3125 C-9.20877536 8.83559906 -9.20877536 8.83559906 -11.8125 1 C-16.88796436 -1.74075075 -21.60936103 -1.45643511 -27.15234375 -0.17578125 C-34.54955472 2.28049034 -39.14961305 7.43023889 -43.9375 13.3125 C-44.2675 13.3125 -44.5975 13.3125 -44.9375 13.3125 C-44.9375 9.3525 -44.9375 5.3925 -44.9375 1.3125 C-42.70986012 0.49559823 -40.4805514 -0.31611872 -38.25 -1.125 C-37.31124023 -1.47014648 -37.31124023 -1.47014648 -36.35351562 -1.82226562 C-24.34381681 -6.16084792 -11.29962863 -6.49127602 0 0 Z M-29.7734375 33.8359375 C-34.99605988 39.52451875 -37.429496 44.38272448 -37.1875 52.29296875 C-36.61559242 56.91290966 -34.83459154 60.28348324 -31.8125 63.75 C-27.7753265 65.94411603 -24.43685216 65.96434961 -19.9375 65.3125 C-14.57994904 63.39186852 -11.47912784 60.39575568 -8.9375 55.3125 C-8.85082745 52.68622867 -8.82189865 50.08687517 -8.83984375 47.4609375 C-8.84196617 46.29988998 -8.84196617 46.29988998 -8.84413147 45.11538696 C-8.84973597 42.63938558 -8.86228917 40.16347412 -8.875 37.6875 C-8.88001442 36.01041797 -8.88457743 34.33333453 -8.88867188 32.65625 C-8.89970685 28.54163194 -8.91697446 24.42708122 -8.9375 20.3125 C-15.00353933 20.3125 -25.40672964 29.95040957 -29.7734375 33.8359375 Z " fill="#ECC3C7" transform="translate(658.9375,368.6875)"/>
<path d="M0 0 C4.73748227 4.84407562 7.37860963 10.18620682 8.64135742 16.78442383 C8.81559738 17.68558426 8.98983734 18.58674469 9.1693573 19.51521301 C9.29909439 20.20241928 9.42883148 20.88962555 9.5625 21.59765625 C9.02458832 21.75163879 8.48667664 21.90562134 7.9324646 22.06427002 C2.31572167 23.67434521 -3.29664653 25.29903322 -8.90673828 26.93212891 C-10.99875816 27.53905097 -13.09185163 28.14228542 -15.18603516 28.74169922 C-18.20247096 29.60578985 -21.21474962 30.48323149 -24.2265625 31.36328125 C-25.15804108 31.62699524 -26.08951965 31.89070923 -27.04922485 32.16241455 C-32.16754929 33.67366882 -36.23725957 35.26870851 -40.4375 38.59765625 C-41.6685075 41.08459043 -41.51646283 42.22646876 -40.94140625 44.9296875 C-38.45656193 51.47689142 -35.28402932 55.67195792 -29.4375 59.59765625 C-23.81359676 61.47229066 -17.45413246 61.6437829 -11.82421875 59.69140625 C-6.84386815 57.07986106 -3.88616788 53.95920681 -0.4375 49.59765625 C0.5525 49.59765625 1.5425 49.59765625 2.5625 49.59765625 C1.02044806 55.95862049 -4.25109881 59.39168619 -9.3671875 62.93359375 C-17.2124328 67.23779448 -28.05194825 67.14420605 -36.51171875 64.71484375 C-45.03065496 60.77499883 -51.13290206 54.36815316 -54.4375 45.59765625 C-58.15253186 34.8146757 -58.40303122 20.35730282 -53.6953125 9.85546875 C-49.02222682 1.46713483 -43.90752863 -3.42181614 -34.8125 -6.71484375 C-22.73458384 -9.15890144 -9.90669032 -7.78723013 0 0 Z M-37.125 1.28515625 C-43.07804363 8.98008724 -43.59064423 18.05985536 -43.5 27.41015625 C-43.49548828 28.29380859 -43.49097656 29.17746094 -43.48632812 30.08789062 C-43.47459866 32.25784184 -43.45666495 34.42775797 -43.4375 36.59765625 C-42.60702148 36.02301636 -42.60702148 36.02301636 -41.75976562 35.43676758 C-34.52548393 30.73696998 -27.23472315 28.46705051 -18.9375 26.28515625 C-16.42673882 25.60282895 -13.91630397 24.9192993 -11.40625 24.234375 C-10.30732422 23.94264404 -9.20839844 23.65091309 -8.07617188 23.3503418 C-5.48815762 22.69994712 -5.48815762 22.69994712 -3.4375 21.59765625 C-5.05932719 8.78279613 -5.05932719 8.78279613 -12.5 -1.33984375 C-20.55342743 -6.9943779 -30.34341648 -5.49642727 -37.125 1.28515625 Z " fill="#EEC7CA" transform="translate(392.4375,371.40234375)"/>
<path d="M0 0 C5.35275303 -0.07482879 10.70519351 -0.12891907 16.05834961 -0.16479492 C17.8748099 -0.17976973 19.69123474 -0.20015684 21.50756836 -0.22631836 C48.86164587 -0.61010322 48.86164587 -0.61010322 59 9 C63.43876656 14.83172844 64.84168137 20.78013039 64.46875 28.04296875 C63.47237426 34.32843907 61.33057659 39.01812036 56.44140625 43.17578125 C54.01172065 44.89551617 51.56697331 46.49470691 49 48 C49.79664063 48.35191406 50.59328125 48.70382812 51.4140625 49.06640625 C59.11826574 52.65607759 64.10872601 55.90585058 68.3125 63.3125 C70.39704453 71.46117407 70.97381617 79.59837982 66.80859375 87.1640625 C61.50909732 94.8750464 54.82351736 98.24418436 45.88330078 100.39575195 C37.41308494 101.7137316 28.79878266 101.30191553 20.25 101.1875 C18.28126026 101.17242319 16.31250933 101.1587401 14.34375 101.14648438 C9.56221942 101.11372255 4.78123577 101.06210638 0 101 C0.33 100.01 0.66 99.02 1 98 C1.33 98.66 1.66 99.32 2 100 C6.21792077 99.90639526 10.43528583 99.80028691 14.65258789 99.68261719 C16.08707068 99.64435134 17.52164865 99.60949419 18.95629883 99.578125 C21.01938878 99.53242138 23.08182495 99.47443807 25.14453125 99.4140625 C26.38565674 99.3826416 27.62678223 99.3512207 28.90551758 99.31884766 C32.16636101 99.22600791 32.16636101 99.22600791 35 97 C36.7815313 96.52290261 38.57501647 96.08941413 40.375 95.6875 C46.65255486 94.03115307 49.46841563 91.6255732 52.75 86 C56.44677042 77.12775099 55.45024352 68.76180263 52 60 C49.42895708 55.07216774 45.64925451 53.4972958 40.5703125 51.78125 C33.16690045 50.16124736 25.55380414 50.15655553 18 50 C18 49.67 18 49.34 18 49 C18.91523438 48.95101562 19.83046875 48.90203125 20.7734375 48.8515625 C21.96195313 48.77679688 23.15046875 48.70203125 24.375 48.625 C25.55835938 48.55539062 26.74171875 48.48578125 27.9609375 48.4140625 C31.10562319 48.29782654 31.10562319 48.29782654 33 46 C34.5898949 45.51318262 36.19727582 45.08222495 37.8125 44.6875 C42.42269481 43.35699645 45.06182537 41.94817216 48 38 C50.83280018 30.95818111 51.36139434 22.79799519 49.27734375 15.453125 C47.34209923 11.28490603 45.00742019 8.36802102 41 6 C33.61196796 3.40050725 25.75996525 3.38395661 18 3 C18 2.67 18 2.34 18 2 C12.06 2 6.12 2 0 2 C0 1.34 0 0.68 0 0 Z " fill="#EAC1C4" transform="translate(124,336)"/>
<path d="M0 0 C6.13189209 4.50429111 9.12230894 9.00920801 10.8984375 16.39453125 C11.08893451 19.17328414 11.19881371 21.86011983 11.20703125 24.63671875 C11.23219107 26.21354537 11.2575891 27.7903682 11.28320312 29.3671875 C11.31187027 31.81786104 11.33592935 34.26846904 11.35473633 36.71923828 C11.30083444 49.38633673 11.30083444 49.38633673 14.8984375 61.39453125 C17.42824457 63.34953982 17.42824457 63.34953982 19.8984375 64.39453125 C19.8984375 65.05453125 19.8984375 65.71453125 19.8984375 66.39453125 C13.81906967 66.12433712 9.72069454 65.43176971 4.8984375 61.39453125 C2.64550024 58.82868603 0.7923834 56.2354501 -1.1015625 53.39453125 C-1.57464844 53.9978125 -2.04773438 54.60109375 -2.53515625 55.22265625 C-7.0708057 60.70433784 -10.99814712 64.85031052 -18.1015625 66.39453125 C-25.80538825 67.09487905 -32.3061224 67.45401654 -39.1015625 63.39453125 C-42.86576916 59.93553053 -43.92293911 56.70038876 -44.26171875 51.734375 C-43.88350137 46.20871139 -41.19193898 42.51026532 -37.4140625 38.64453125 C-26.94561788 30.92275774 -12.85502098 28.58431153 -0.1015625 29.39453125 C-0.26960827 16.81482628 -0.26960827 16.81482628 -5.4921875 5.76953125 C-10.24928007 1.54100452 -14.67916736 1.11376605 -20.78515625 1.1640625 C-24.3392375 1.51767261 -26.9153551 2.80142755 -30.1015625 4.39453125 C-31.0915625 4.72453125 -32.0815625 5.05453125 -33.1015625 5.39453125 C-34.27109666 7.81836202 -34.27109666 7.81836202 -35.1015625 10.39453125 C-35.4315625 11.05453125 -35.7615625 11.71453125 -36.1015625 12.39453125 C-36.6784585 18.56288076 -36.28274844 22.96000528 -33.1015625 28.39453125 C-33.1015625 29.38453125 -33.1015625 30.37453125 -33.1015625 31.39453125 C-36.3725928 30.37938391 -37.12014385 29.36201389 -38.8515625 26.33203125 C-41.01346746 20.61842528 -40.738449 15.40575178 -38.9140625 9.64453125 C-35.8370756 4.12717543 -31.52154018 -0.12870051 -25.4296875 -2.1640625 C-17.4026207 -3.68597282 -7.31805808 -3.96745294 0 0 Z M-27.1015625 38.39453125 C-31.40824935 42.91130038 -32.45538894 45.97828574 -32.38671875 52.0703125 C-31.9481038 55.64532478 -30.44320858 57.72765655 -28.1015625 60.39453125 C-24.67351764 62.995117 -21.2856299 62.81293799 -17.1015625 62.39453125 C-11.51865219 60.52648521 -7.10395428 57.55522601 -4.1015625 52.39453125 C-0.7276054 45.37006319 0.50424323 39.15221018 -0.1015625 31.39453125 C-9.79365888 31.20033624 -18.93763704 32.99306828 -27.1015625 38.39453125 Z " fill="#B1B3BB" transform="translate(600.1015625,483.60546875)"/>
<path d="M0 0 C0 6.27 0 12.54 0 19 C3.63 19 7.26 19 11 19 C11 19.99 11 20.98 11 22 C7.37 22 3.74 22 0 22 C0.10822663 29.47598929 0.22036702 36.95189542 0.33933926 44.42772198 C0.39443147 47.89929328 0.44782891 51.37087319 0.49731445 54.8425293 C0.55432045 58.83651547 0.61876738 62.8303518 0.68359375 66.82421875 C0.70030624 68.06709152 0.71701874 69.30996429 0.73423767 70.59049988 C0.75418289 71.75132584 0.77412811 72.91215179 0.79467773 74.1081543 C0.81799416 75.63704536 0.81799416 75.63704536 0.84178162 77.19682312 C0.99377622 79.88973242 1.39989353 82.37403845 2 85 C7.4389165 85.21755666 11.87080814 85.10428384 17 83 C17.33 83.66 17.66 84.32 18 85 C10.1882951 89.65378164 3.21935138 92.87464808 -6 91 C-9.96472765 88.22469064 -11.50057869 85.51027747 -13 81 C-13.24050903 78.15885925 -13.24050903 78.15885925 -13.22705078 75.01635742 C-13.22682419 73.24508736 -13.22682419 73.24508736 -13.22659302 71.43803406 C-13.21110916 69.54091423 -13.21110916 69.54091423 -13.1953125 67.60546875 C-13.1924826 66.30297684 -13.18965271 65.00048492 -13.18673706 63.65852356 C-13.17912697 60.20777616 -13.15950135 56.75719902 -13.1373291 53.30651855 C-13.11681388 49.780541 -13.10772324 46.25453575 -13.09765625 42.72851562 C-13.07625272 35.81894079 -13.04214874 28.90947859 -13 22 C-14.98 22 -16.96 22 -19 22 C-19 21.01 -19 20.02 -19 19 C-17.02 19 -15.04 19 -13 19 C-13.2165625 18.32453125 -13.433125 17.6490625 -13.65625 16.953125 C-13.9346875 16.06109375 -14.213125 15.1690625 -14.5 14.25 C-14.7784375 13.36828125 -15.056875 12.4865625 -15.34375 11.578125 C-16 9 -16 9 -16 5 C-13.70967689 4.16280617 -11.41789043 3.3301071 -9.125 2.5 C-8.47402344 2.26152344 -7.82304688 2.02304687 -7.15234375 1.77734375 C-2.2265625 0 -2.2265625 0 0 0 Z " fill="#EFC7CB" transform="translate(591,346)"/>
<path d="M0 0 C3.10882882 2.40852422 5.11109364 4.94874978 6.85546875 8.4375 C6.85546875 12.0675 6.85546875 15.6975 6.85546875 19.4375 C-8.65453125 19.4375 -24.16453125 19.4375 -40.14453125 19.4375 C-40.92344972 39.36910412 -40.92344972 39.36910412 -31.8984375 56.03515625 C-26.42505371 60.41142525 -20.60505625 62.14561159 -13.6328125 61.8203125 C-7.83449766 60.92826406 -3.55906433 58.78916494 0.66796875 54.75 C3.26367689 50.81935625 5.11851941 46.80413241 6.85546875 42.4375 C7.84546875 42.9325 7.84546875 42.9325 8.85546875 43.4375 C8.3718042 49.88636066 5.65463088 54.87018766 0.921875 59.2109375 C-6.9286911 65.29549724 -14.26445916 66.52212589 -24.14453125 66.4375 C-33.97492579 64.97391769 -41.50899835 60.66733467 -47.49609375 52.62109375 C-53.59754673 43.5045953 -54.49665088 33.41386956 -52.6796875 22.6953125 C-50.12512937 12.99101475 -44.77111812 5.56050917 -36.14453125 0.4375 C-35.45101563 0.02371094 -34.7575 -0.39007813 -34.04296875 -0.81640625 C-24.01873426 -5.75962841 -9.60790269 -5.82096686 0 0 Z M-35.85546875 7.265625 C-37.77163331 10.49407196 -38.8898586 13.90093732 -40.14453125 17.4375 C-35.66049715 17.48701788 -31.17660886 17.52327526 -26.69238281 17.54736328 C-25.16761502 17.55740744 -23.64286641 17.57104531 -22.11816406 17.58837891 C-19.92377987 17.61269738 -17.72965083 17.62399889 -15.53515625 17.6328125 C-13.55563965 17.64852295 -13.55563965 17.64852295 -11.53613281 17.66455078 C-8.39872446 17.45451697 -6.69538508 17.21095817 -4.14453125 15.4375 C-2.56997386 12.28838521 -2.79654007 9.91741184 -3.14453125 6.4375 C-5.88997961 2.28010678 -8.22492474 -0.44440761 -13.14453125 -1.5625 C-22.42761793 -2.72288583 -29.81652518 0.13190219 -35.85546875 7.265625 Z " fill="#B1B3BB" transform="translate(418.14453125,484.5625)"/>
<path d="M0 0 C3.54109516 2.73596195 5.44837764 5.21232042 6.85546875 9.43359375 C6.85546875 12.73359375 6.85546875 16.03359375 6.85546875 19.43359375 C-8.98453125 19.43359375 -24.82453125 19.43359375 -41.14453125 19.43359375 C-40.92359201 40.27374973 -40.92359201 40.27374973 -31.0546875 56.83984375 C-25.99109951 61.0646779 -20.22265139 62.07368892 -13.734375 61.84375 C-7.55557076 60.86520634 -2.00758902 58.09945331 1.79296875 53.05859375 C3.88611764 49.68134997 5.42113723 46.13265924 6.85546875 42.43359375 C7.84546875 42.92859375 7.84546875 42.92859375 8.85546875 43.43359375 C8.51079865 50.15466079 4.89455599 55.29372045 0.32421875 60.015625 C-6.36792194 65.44478816 -15.25601025 66.76766457 -23.64453125 66.49609375 C-31.96298825 65.56738246 -39.86700372 62.33302184 -45.64453125 56.12109375 C-52.89099362 46.50189591 -53.97586254 36.11906734 -53.14453125 24.43359375 C-50.7432632 13.37403917 -44.90988108 6.24513916 -35.8046875 -0.12109375 C-25.63021422 -5.64907483 -9.9863035 -6.06740987 0 0 Z M-33.95703125 5.24609375 C-38.48020074 10.74240415 -38.48020074 10.74240415 -40.14453125 17.43359375 C-35.82124321 17.50799505 -31.4982987 17.56231343 -27.17456055 17.59838867 C-25.70509343 17.61343441 -24.23567091 17.63387613 -22.76635742 17.65991211 C-20.64881355 17.6964833 -18.5318656 17.71336176 -16.4140625 17.7265625 C-15.14151611 17.74227295 -13.86896973 17.7579834 -12.55786133 17.77416992 C-8.61236961 17.38049558 -5.96600123 16.25506373 -3.14453125 13.43359375 C-2.96360902 9.62636075 -3.0444868 5.8474647 -5.4453125 2.76171875 C-14.18709053 -4.61347859 -26.49124855 -2.93965961 -33.95703125 5.24609375 Z " fill="#B1B3BB" transform="translate(295.14453125,484.56640625)"/>
<path d="M0 0 C17.49 0 34.98 0 53 0 C52.09182323 4.54088384 51.47152523 6.21931035 49 9.859375 C48.36835937 10.79813477 47.73671875 11.73689453 47.0859375 12.70410156 C46.39757812 13.70924805 45.70921875 14.71439453 45 15.75 C44.29101562 16.79897461 43.58203125 17.84794922 42.8515625 18.92871094 C40.96096552 21.72231674 39.06340547 24.51089268 37.16162109 27.296875 C35.24901494 30.10106595 33.34365996 32.91017519 31.4375 35.71875 C28.60967214 39.88397732 25.77535623 44.04472337 22.9375 48.203125 C18.92383564 54.11213086 14.96235562 60.05646656 11 66 C24.86 66 38.72 66 53 66 C53 66.66 53 67.32 53 68 C34.52 68 16.04 68 -3 68 C-1.56569197 64.41422993 -0.46651699 61.95256483 1.60693359 58.86254883 C2.12863129 58.08015335 2.65032898 57.29775787 3.18783569 56.49165344 C3.75233429 55.65522812 4.31683289 54.8188028 4.8984375 53.95703125 C5.48863678 53.07456223 6.07883606 52.1920932 6.68692017 51.28288269 C8.57862215 48.45649598 10.47665863 45.63443054 12.375 42.8125 C13.61370974 40.96447985 14.85199506 39.11617514 16.08984375 37.26757812 C18.53009767 33.62438042 20.97265345 29.98274333 23.41699219 26.34228516 C28.63043424 18.57424586 33.81427081 10.78655957 39 3 C26.13 3 13.26 3 0 3 C0 2.01 0 1.02 0 0 Z " fill="#B1B3BB" transform="translate(498,481)"/>
<path d="M0 0 C17.49 0 34.98 0 53 0 C52.06409394 4.67953029 51.39720848 6.29191846 48.75390625 9.9921875 C48.08673584 10.93650635 47.41956543 11.8808252 46.73217773 12.85375977 C46.01618408 13.85076904 45.30019043 14.84777832 44.5625 15.875 C43.08484717 17.96407296 41.60828227 20.05391587 40.1328125 22.14453125 C39.41641602 23.15596191 38.70001953 24.16739258 37.96191406 25.20947266 C35.56183529 28.62322332 33.23192015 32.07719744 30.9375 35.5625 C24.40773635 45.45352838 17.68597115 55.2141695 11 65 C24.86 65.33 38.72 65.66 53 66 C53 66.66 53 67.32 53 68 C34.52 68 16.04 68 -3 68 C-1.97330002 62.8665001 -0.94376825 61.17899198 2.12109375 57.11328125 C6.71497763 50.88682202 11.03786158 44.51034567 15.28515625 38.04296875 C15.91763275 37.08093536 16.55010925 36.11890198 17.20175171 35.12771606 C19.15750027 32.14905821 21.11023533 29.16844218 23.0625 26.1875 C25.05260619 23.15270224 27.04351467 20.11843684 29.03575134 17.08503723 C30.26576805 15.21182035 31.4944609 13.33773337 32.72169495 11.46269226 C33.26994431 10.62704239 33.81819366 9.79139252 34.38305664 8.93041992 C34.86585587 8.19321213 35.34865509 7.45600433 35.84608459 6.69645691 C37 5 37 5 38 4 C25.46 3.67 12.92 3.34 0 3 C0 2.01 0 1.02 0 0 Z " fill="#B1B3BB" transform="translate(436,481)"/>
<path d="M0 0 C0 32.34 0 64.68 0 98 C-3.63 98 -7.26 98 -11 98 C-11 66.32 -11 34.64 -11 2 C-3 0 -3 0 0 0 Z " fill="#B1B3BB" transform="translate(326,451)"/>
<path d="M0 0 C0 32.34 0 64.68 0 98 C-3.63 98 -7.26 98 -11 98 C-11 66.65 -11 35.3 -11 3 C-2 0 -2 0 0 0 Z " fill="#B1B3BB" transform="translate(353,451)"/>
<path d="M0 0 C0.33 0 0.66 0 1 0 C1.01401855 1.76259155 1.01401855 1.76259155 1.02832031 3.56079102 C1.06835335 7.94267949 1.13414874 12.32387568 1.20751953 16.70532227 C1.23565216 18.59748404 1.25690488 20.48976164 1.27099609 22.38208008 C1.29253286 25.1107887 1.33923669 27.83811591 1.390625 30.56640625 C1.39185364 31.40522842 1.39308228 32.2440506 1.39434814 33.10829163 C1.53684305 38.89159803 2.86532539 42.15014815 6 47 C6 47.66 6 48.32 6 49 C-0.93 49 -7.86 49 -15 49 C-13 44 -13 44 -11.89428711 42.04272461 C-10.73127307 39.38617574 -10.72728494 37.21132427 -10.69140625 34.31640625 C-10.65370117 32.67768555 -10.65370117 32.67768555 -10.61523438 31.00585938 C-10.5801388 28.71424838 -10.5488754 26.42257541 -10.52148438 24.13085938 C-10.4818457 22.49020508 -10.4818457 22.49020508 -10.44140625 20.81640625 C-10.42795166 19.82068604 -10.41449707 18.82496582 -10.40063477 17.79907227 C-9.93583665 14.55171676 -8.95609816 12.61620281 -7 10 C-6.34 10 -5.68 10 -5 10 C-4.9175 9.46375 -4.835 8.9275 -4.75 8.375 C-3.73078583 5.14748846 -1.98040697 2.72305958 0 0 Z " fill="#EFC8CC" transform="translate(284,388)"/>
<path d="M0 0 C10.70816284 -0.57025719 20.94359683 -0.10572051 29.875 6.5 C36.11374147 12.50937597 38.91868234 20.63183714 40 29 C38.79988281 29.34256836 37.59976563 29.68513672 36.36328125 30.03808594 C31.88067811 31.31988422 27.4011142 32.6120386 22.92236328 33.90722656 C20.98924895 34.46471283 19.05533822 35.01944567 17.12060547 35.57128906 C14.32822522 36.36828992 11.53892747 37.17538602 8.75 37.984375 C7.89446533 38.22621521 7.03893066 38.46805542 6.1574707 38.71722412 C-1.80830788 41.00666248 -1.80830788 41.00666248 -9 45 C-10.2539057 47.40966615 -10.58004825 49.27031359 -11 52 C-11.33 52 -11.66 52 -12 52 C-13.3671875 46.23828125 -13.3671875 46.23828125 -13 44 C-8.42424255 39.07633372 -3.2490849 37.33864188 3.0625 35.375 C4.45118286 34.9272522 4.45118286 34.9272522 5.86791992 34.47045898 C12.83637602 32.26251717 19.82097689 30.39851099 27 29 C26.43092247 26.6207716 25.84538621 24.24765847 25.25 21.875 C25.09273437 21.20984375 24.93546875 20.5446875 24.7734375 19.859375 C23.38207959 14.40097088 21.24522983 10.17491992 17.12890625 6.1875 C13.56657321 4.20043717 9.77478557 4.09935651 5.77734375 3.625 C2.84007596 2.96401147 1.82795266 2.32763522 0 0 Z " fill="#EAC1C4" transform="translate(495,364)"/>
<path d="M0 0 C11.85223198 -0.46110989 21.55241312 -0.07325075 30.953125 7.77734375 C36.58252638 13.89018609 38.9453495 20.91593687 40 29 C38.79988281 29.34256836 37.59976563 29.68513672 36.36328125 30.03808594 C31.88067811 31.31988422 27.4011142 32.6120386 22.92236328 33.90722656 C20.98924895 34.46471283 19.05533822 35.01944567 17.12060547 35.57128906 C14.32822522 36.36828992 11.53892747 37.17538602 8.75 37.984375 C7.89446533 38.22621521 7.03893066 38.46805542 6.1574707 38.71722412 C-1.80830788 41.00666248 -1.80830788 41.00666248 -9 45 C-10.2539057 47.40966615 -10.58004825 49.27031359 -11 52 C-11.33 52 -11.66 52 -12 52 C-13.3671875 46.23828125 -13.3671875 46.23828125 -13 44 C-8.42424255 39.07633372 -3.2490849 37.33864188 3.0625 35.375 C4.45118286 34.9272522 4.45118286 34.9272522 5.86791992 34.47045898 C12.83637602 32.26251717 19.82097689 30.39851099 27 29 C26.43092247 26.6207716 25.84538621 24.24765847 25.25 21.875 C25.09273437 21.20984375 24.93546875 20.5446875 24.7734375 19.859375 C23.38207959 14.40097088 21.24522983 10.17491992 17.12890625 6.1875 C13.56657321 4.20043717 9.77478557 4.09935651 5.77734375 3.625 C2.84007596 2.96401147 1.82795266 2.32763522 0 0 Z " fill="#EBC2C5" transform="translate(225,364)"/>
<path d="M0 0 C11.13697699 -0.58530098 21.37629463 0.27971356 30.4375 7.40234375 C35.17498227 12.24641937 37.81610963 17.58855057 39.07885742 24.18676758 C39.25309738 25.08792801 39.42733734 25.98908844 39.6068573 26.91755676 C39.73659439 27.60476303 39.86633148 28.2919693 40 29 C39.46430893 29.15398254 38.92861786 29.30796509 38.37669373 29.46661377 C32.77649092 31.07831416 27.18009538 32.7027538 21.58569336 34.33447266 C19.50037081 34.94090612 17.41411487 35.54413989 15.3269043 36.14404297 C12.31825719 37.00939675 9.31321033 37.88639298 6.30859375 38.765625 C5.38227646 39.02933899 4.45595917 39.29305298 3.50157166 39.5647583 C-1.84756844 41.14429951 -6.22966431 43.12271668 -11 46 C-11.66 46 -12.32 46 -13 46 C-10.86535736 41.06682127 -7.76043933 39.26810465 -3 37 C1.73114379 35.32779766 6.53174071 33.9937424 11.375 32.6875 C12.67088384 32.32598247 13.96645992 31.96335987 15.26171875 31.59960938 C24.64011905 29 24.64011905 29 27 29 C26.43092247 26.6207716 25.84538621 24.24765847 25.25 21.875 C25.09273438 21.20984375 24.93546875 20.5446875 24.7734375 19.859375 C23.38207959 14.40097088 21.24522983 10.17491992 17.12890625 6.1875 C13.56657321 4.20043717 9.77478557 4.09935651 5.77734375 3.625 C2.84007596 2.96401147 1.82795266 2.32763522 0 0 Z " fill="#EAC1C4" transform="translate(362,364)"/>
<path d="M0 0 C2.475 0.495 2.475 0.495 5 1 C4.67 1.66 4.34 2.32 4 3 C3.91528636 4.81341842 3.89278917 6.62994161 3.90234375 8.4453125 C3.90556641 9.52167969 3.90878906 10.59804688 3.91210938 11.70703125 C3.92048828 12.83496094 3.92886719 13.96289062 3.9375 15.125 C3.94201172 16.26066406 3.94652344 17.39632813 3.95117188 18.56640625 C3.96298385 21.37765638 3.97945493 24.1888023 4 27 C3.67 27 3.34 27 3 27 C2.67 19.74 2.34 12.48 2 5 C1.030625 6.60875 0.06125 8.2175 -0.9375 9.875 C-6.32531848 18.33224234 -12.94973719 25.96724777 -21 32 C-21.86625 32.66 -22.7325 33.32 -23.625 34 C-29.15274182 35.63784943 -34.44138627 34.14636099 -40 33 C-40 32.67 -40 32.34 -40 32 C-39.29875 31.97421875 -38.5975 31.9484375 -37.875 31.921875 C-31.36818742 31.53288077 -26.46833329 30.60252859 -21 27 C-20.44054687 26.63519531 -19.88109375 26.27039063 -19.3046875 25.89453125 C-10.88237026 19.52882636 -5.05195057 9.09351103 0 0 Z " fill="#E4B9BB" transform="translate(270,401)"/>
<path d="M0 0 C0.495 0.99 0.495 0.99 1 2 C-2.30669036 5.30669036 -5.36506049 6.53985483 -9.76953125 7.83984375 C-10.90583984 8.18080078 -12.04214844 8.52175781 -13.21289062 8.87304688 C-15.60079161 9.57918146 -17.98881132 10.28491469 -20.37695312 10.99023438 C-21.51712891 11.33248047 -22.65730469 11.67472656 -23.83203125 12.02734375 C-24.87077393 12.33406006 -25.9095166 12.64077637 -26.97973633 12.95678711 C-30.19741486 14.06818799 -33.0718039 15.25727195 -36 17 C-37.44967902 20.5693717 -37.44967902 20.5693717 -38 24 C-38.33 24 -38.66 24 -39 24 C-40.3671875 18.23828125 -40.3671875 18.23828125 -40 16 C-35.41932474 11.06347063 -30.26457305 9.37875461 -23.9375 7.4375 C-23.01171143 7.14157959 -22.08592285 6.84565918 -21.13208008 6.54077148 C-18.42564224 5.6794715 -15.71397428 4.83720251 -13 4 C-11.57800093 3.55508384 -10.15611216 3.10981488 -8.734375 2.6640625 C-5.82709088 1.76113946 -2.9168922 0.87127949 0 0 Z " fill="#E5BABD" transform="translate(522,392)"/>
<path d="M0 0 C0.495 0.99 0.495 0.99 1 2 C-2.30669036 5.30669036 -5.36506049 6.53985483 -9.76953125 7.83984375 C-10.90583984 8.18080078 -12.04214844 8.52175781 -13.21289062 8.87304688 C-15.60079161 9.57918146 -17.98881132 10.28491469 -20.37695312 10.99023438 C-21.51712891 11.33248047 -22.65730469 11.67472656 -23.83203125 12.02734375 C-24.87077393 12.33406006 -25.9095166 12.64077637 -26.97973633 12.95678711 C-30.19741486 14.06818799 -33.0718039 15.25727195 -36 17 C-37.44967902 20.5693717 -37.44967902 20.5693717 -38 24 C-38.33 24 -38.66 24 -39 24 C-40.3671875 18.23828125 -40.3671875 18.23828125 -40 16 C-35.41932474 11.06347063 -30.26457305 9.37875461 -23.9375 7.4375 C-23.01171143 7.14157959 -22.08592285 6.84565918 -21.13208008 6.54077148 C-18.42564224 5.6794715 -15.71397428 4.83720251 -13 4 C-11.57800093 3.55508384 -10.15611216 3.10981488 -8.734375 2.6640625 C-5.82709088 1.76113946 -2.9168922 0.87127949 0 0 Z " fill="#E7BCBF" transform="translate(252,392)"/>
<path d="M0 0 C-0.99 0.495 -0.99 0.495 -2 1 C-1.67 1.66 -1.34 2.32 -1 3 C-1.85380249 3.24121582 -1.85380249 3.24121582 -2.72485352 3.48730469 C-5.34021119 4.23204551 -7.95127504 4.99090176 -10.5625 5.75 C-11.45775391 6.00265625 -12.35300781 6.2553125 -13.27539062 6.515625 C-18.70763706 8.10749209 -23.16269424 10.0760044 -28 13 C-28.66 13 -29.32 13 -30 13 C-27.8993148 8.19988357 -24.65036192 6.15175586 -20 4 C-17.09162 2.93896932 -14.15280282 2.01318697 -11.1875 1.125 C-10.0571936 0.78384155 -10.0571936 0.78384155 -8.90405273 0.43579102 C-3.38283788 -1.12761263 -3.38283788 -1.12761263 0 0 Z " fill="#E5BABC" transform="translate(379,397)"/>
<path d="M0 0 C0.671875 1.76171875 0.671875 1.76171875 1 4 C-2.78690459 10.8531669 -10.19727106 15.53843439 -17 19 C-19.8359375 19.69140625 -19.8359375 19.69140625 -22 20 C-22 19.34 -22 18.68 -22 18 C-22.66 17.67 -23.32 17.34 -24 17 C-23.443125 16.78085937 -22.88625 16.56171875 -22.3125 16.3359375 C-13.84652744 12.81798269 -7.88229683 8.77550977 -3 1 C-2.01 0.67 -1.02 0.34 0 0 Z " fill="#E1B4B6" transform="translate(539,415)"/>
<path d="M0 0 C0.99 0 1.98 0 3 0 C1.38736211 6.6521313 -4.56617368 10.17463026 -9.75 14.0625 C-14.95614176 15.56427166 -19.79695285 14.17026465 -25 13 C-25 12.67 -25 12.34 -25 12 C-24.31035156 11.98582031 -23.62070312 11.97164063 -22.91015625 11.95703125 C-15.2944077 11.57049806 -8.82588898 10.07457176 -3.4375 4.3359375 C-2.28864275 2.8930275 -1.14397107 1.44678694 0 0 Z " fill="#DBADAE" transform="translate(392,421)"/>
<path d="M0 0 C0.66 0.33 1.32 0.66 2 1 C2 1.99 2 2.98 2 4 C-2.03505204 7.10709434 -5.29044171 9.05545547 -10.4921875 8.88671875 C-13.69970026 8.37084963 -16.84339587 7.76597658 -20 7 C-20 6.67 -20 6.34 -20 6 C-19.29875 5.97421875 -18.5975 5.9484375 -17.875 5.921875 C-11.42226306 5.53611355 -4.84348827 4.84348827 0 0 Z " fill="#E1B4B6" transform="translate(250,427)"/>
<path d="M0 0 C1.04285156 -0.01417969 2.08570313 -0.02835937 3.16015625 -0.04296875 C5.9375 0.1875 5.9375 0.1875 8.9375 2.1875 C8.2775 2.1875 7.6175 2.1875 6.9375 2.1875 C6.9375 2.8475 6.9375 3.5075 6.9375 4.1875 C6.18984375 4.17589844 5.4421875 4.16429687 4.671875 4.15234375 C3.68703125 4.14332031 2.7021875 4.13429688 1.6875 4.125 C0.71296875 4.11339844 -0.2615625 4.10179687 -1.265625 4.08984375 C-3.72008678 4.17554423 -5.72418914 4.48043934 -8.0625 5.1875 C-7.7325 4.1975 -7.4025 3.2075 -7.0625 2.1875 C-8.0525 1.8575 -9.0425 1.5275 -10.0625 1.1875 C-6.67371636 0.16678204 -3.53093119 0.0218769 0 0 Z " fill="#E0B3B6" transform="translate(435.0625,363.8125)"/>
<path d="M0 0 C0 0.99 0 1.98 0 3 C-0.66 3.66 -1.32 4.32 -2 5 C-1.67 5.66 -1.34 6.32 -1 7 C-5.47830028 8.43305609 -9.23917255 9.44286767 -14 9 C-14.66 8.34 -15.32 7.68 -16 7 C-14.31581982 5.31581982 -11.98991671 5.51380277 -9.6875 5.1875 C-5.98233275 4.55714038 -4.30516356 4.24129212 -1.3125 1.875 C-0.6628125 0.946875 -0.6628125 0.946875 0 0 Z " fill="#E8BEC1" transform="translate(445,429)"/>
<path d="M0 0 C0.99 0.33 1.98 0.66 3 1 C1.49103331 5.22510673 -1.27310654 6.71822849 -5 9 C-5.99 9.66 -6.98 10.32 -8 11 C-8.33 9.68 -8.66 8.36 -9 7 C-7.57277341 5.8001722 -6.13284224 4.6154424 -4.6875 3.4375 C-3.88699219 2.77621094 -3.08648437 2.11492187 -2.26171875 1.43359375 C-1.51535156 0.96050781 -0.76898438 0.48742187 0 0 Z " fill="#E1B4B6" transform="translate(298,366)"/>
<path d="M0 0 C1.65 0.33 3.3 0.66 5 1 C4.67 1.66 4.34 2.32 4 3 C3.91528636 4.81341842 3.89278917 6.62994161 3.90234375 8.4453125 C3.90717773 10.05986328 3.90717773 10.05986328 3.91210938 11.70703125 C3.92048828 12.83496094 3.92886719 13.96289062 3.9375 15.125 C3.94201172 16.26066406 3.94652344 17.39632813 3.95117188 18.56640625 C3.96298385 21.37765638 3.97945493 24.1888023 4 27 C3.67 27 3.34 27 3 27 C2.67 19.74 2.34 12.48 2 5 C1.01 5 0.02 5 -1 5 C-1 2 -1 2 0 0 Z " fill="#DFB1B2" transform="translate(270,401)"/>
<path d="M0 0 C-0.99 0.495 -0.99 0.495 -2 1 C-1.67 1.66 -1.34 2.32 -1 3 C-4.3 3.66 -7.6 4.32 -11 5 C-11 4.34 -11 3.68 -11 3 C-11.66 2.67 -12.32 2.34 -13 2 C-11.39935157 1.46845258 -9.79431126 0.95011647 -8.1875 0.4375 C-7.29417969 0.14746094 -6.40085937 -0.14257812 -5.48046875 -0.44140625 C-3 -1 -3 -1 0 0 Z " fill="#DFB2B4" transform="translate(379,397)"/>
<path d="M0 0 C2.24973447 -0.054138 4.49984383 -0.09285491 6.75 -0.125 C8.00296875 -0.14820313 9.2559375 -0.17140625 10.546875 -0.1953125 C13.72820492 -0.01537302 15.36521896 0.31001418 18 2 C17.01 2 16.02 2 15 2 C15 2.66 15 3.32 15 4 C13.06166004 3.91284983 11.1242571 3.80467036 9.1875 3.6875 C8.10855469 3.62949219 7.02960938 3.57148438 5.91796875 3.51171875 C2.82502483 2.96931493 1.86977097 2.44710376 0 0 Z " fill="#DBACAE" transform="translate(362,364)"/>
<path d="M0 0 C0.66 0.33 1.32 0.66 2 1 C-1.3 4.3 -4.6 7.6 -8 11 C-8 6.67750434 -5.85084926 5.11604454 -3 2 C-2.01 1.34 -1.02 0.68 0 0 Z " fill="#E5BABC" transform="translate(350,368)"/>
<path d="M0 0 C0.99 0.33 1.98 0.66 3 1 C1.0625 3.0625 1.0625 3.0625 -2 5 C-5.08062179 5.05666696 -7.98465651 4.60438257 -11 4 C-11 3.67 -11 3.34 -11 3 C-10.37351562 2.86722656 -9.74703125 2.73445313 -9.1015625 2.59765625 C-8.28429687 2.42105469 -7.46703125 2.24445313 -6.625 2.0625 C-5.81289063 1.88847656 -5.00078125 1.71445312 -4.1640625 1.53515625 C-1.970537 1.07669307 -1.970537 1.07669307 0 0 Z " fill="#D8A8A9" transform="translate(606,429)"/>
<path d="M0 0 C0.66 0.33 1.32 0.66 2 1 C2 1.99 2 2.98 2 4 C1.525625 4.45375 1.05125 4.9075 0.5625 5.375 C-1.44583349 7.46366683 -1.61869524 9.1783448 -2 12 C-2.33 12 -2.66 12 -3 12 C-4.05699482 6.71502591 -4.05699482 6.71502591 -4 4 C-2.0625 1.5 -2.0625 1.5 0 0 Z " fill="#E3B7B9" transform="translate(216,404)"/>
<path d="M0 0 C-0.99 0.495 -0.99 0.495 -2 1 C-1.67 1.66 -1.34 2.32 -1 3 C-2.98 3.33 -4.96 3.66 -7 4 C-7 3.34 -7 2.68 -7 2 C-7.66 1.67 -8.32 1.34 -9 1 C-3.375 -1.125 -3.375 -1.125 0 0 Z " fill="#E0B3B5" transform="translate(512,397)"/>
<path d="M0 0 C-0.99 0.495 -0.99 0.495 -2 1 C-1.67 1.66 -1.34 2.32 -1 3 C-2.98 3.33 -4.96 3.66 -7 4 C-7 3.34 -7 2.68 -7 2 C-7.66 1.67 -8.32 1.34 -9 1 C-3.375 -1.125 -3.375 -1.125 0 0 Z " fill="#E2B5B7" transform="translate(242,397)"/>
<path d="M0 0 C0 2 0 4 0 6 C-1.65 6.33 -3.3 6.66 -5 7 C-5 6.34 -5 5.68 -5 5 C-5.66 4.67 -6.32 4.34 -7 4 C-6.030625 3.525625 -5.06125 3.05125 -4.0625 2.5625 C-1.19522563 1.29806053 -1.19522563 1.29806053 0 0 Z " fill="#DFB2B4" transform="translate(646,429)"/>
<path d="M0 0 C0.66 0.33 1.32 0.66 2 1 C-0.97 3.97 -3.94 6.94 -7 10 C-7 7 -7 7 -4.625 4.4375 C-3.75875 3.633125 -2.8925 2.82875 -2 2 C-1.34 1.34 -0.68 0.68 0 0 Z " fill="#E5B9BC" transform="translate(418,368)"/>
<path d="M0 0 C0 0.99 0 1.98 0 3 C-0.66 3.66 -1.32 4.32 -2 5 C-1.67 5.66 -1.34 6.32 -1 7 C-2.65 7.33 -4.3 7.66 -6 8 C-6.33 7.01 -6.66 6.02 -7 5 C-6.21625 4.54625 -5.4325 4.0925 -4.625 3.625 C-1.96301969 2.11571258 -1.96301969 2.11571258 0 0 Z " fill="#D9AAAB" transform="translate(445,429)"/>
<path d="M0 0 C0.99 0.33 1.98 0.66 3 1 C2.67 1.99 2.34 2.98 2 4 C-0.5625 5.1875 -0.5625 5.1875 -3 6 C-3 4.68 -3 3.36 -3 2 C-2.01 1.34 -1.02 0.68 0 0 Z " fill="#E0B3B5" transform="translate(647,386)"/>
<path d="M0 0 C0.66 0.33 1.32 0.66 2 1 C-0.31 3.31 -2.62 5.62 -5 8 C-5.66 7.67 -6.32 7.34 -7 7 C-4.78071806 4.09197539 -3.07030857 2.04687238 0 0 Z " fill="#E7BCBE" transform="translate(482,369)"/>
<path d="M0 0 C0.66 0.33 1.32 0.66 2 1 C-0.31 3.31 -2.62 5.62 -5 8 C-5.66 7.67 -6.32 7.34 -7 7 C-4.78071806 4.09197539 -3.07030857 2.04687238 0 0 Z " fill="#E7BDBF" transform="translate(212,369)"/>
<path d="M0 0 C-0.33 0.99 -0.66 1.98 -1 3 C-3.5625 4.1875 -3.5625 4.1875 -6 5 C-6.33 4.01 -6.66 3.02 -7 2 C-4.35261084 0.5393715 -3.10551666 0 0 0 Z " fill="#D6A6A6" transform="translate(572,429)"/>
</svg>
