<?xml version="1.0" encoding="UTF-8"?>
<svg version="1.1" xmlns="http://www.w3.org/2000/svg" width="955" height="250">
<path d="M0 0 C0.99 0.66 1.98 1.32 3 2 C3 2.66 3 3.32 3 4 C3.53625 4.226875 4.0725 4.45375 4.625 4.6875 C13.74165819 9.72565321 20.77815844 19.145573 26 28 C26 28.66 26 29.32 26 30 C26.66 30 27.32 30 28 30 C28.50660156 31.03060547 28.50660156 31.03060547 29.0234375 32.08203125 C29.46945313 32.98308594 29.91546875 33.88414063 30.375 34.8125 C31.03628906 36.15248047 31.03628906 36.15248047 31.7109375 37.51953125 C33.01866905 40.14556381 33.01866905 40.14556381 35 43 C35 43.99 35 44.98 35 46 C35.66 46 36.32 46 37 46 C37.556875 47.1446875 37.556875 47.1446875 38.125 48.3125 C42.2359035 56.51509718 46.80258319 64.44484928 51.58203125 72.2734375 C53.00473485 75.00910447 53.82803993 76.92437127 54 80 C52.9609375 82.359375 52.9609375 82.359375 51.375 84.75 C50.53582031 86.05710938 50.53582031 86.05710938 49.6796875 87.390625 C49.12539062 88.25171875 48.57109375 89.1128125 48 90 C47.1524847 91.49203293 46.31830612 92.99174951 45.5 94.5 C45.09910156 95.22058594 44.69820312 95.94117187 44.28515625 96.68359375 C43.34492018 98.37830496 42.41692546 100.07982376 41.49609375 101.78515625 C40.98175781 102.70167969 40.46742188 103.61820312 39.9375 104.5625 C39.47214844 105.40941406 39.00679687 106.25632812 38.52734375 107.12890625 C38.02332031 107.74636719 37.51929688 108.36382812 37 109 C35.68 109 34.36 109 33 109 C32.67837891 108.40687012 32.35675781 107.81374023 32.02539062 107.20263672 C24.48757301 93.27811877 24.48757301 93.27811877 16.6875 79.5 C14.09233269 75.02132982 11.74207245 70.47484794 9.5 65.8125 C6.30382628 59.31094388 2.4329731 53.70858373 -2 48 C-3.06411473 46.5636949 -4.12675972 45.126299 -5.1875 43.6875 C-6.12377213 42.45739779 -7.06115529 41.22813988 -8 40 C-9.0828125 38.5459375 -9.0828125 38.5459375 -10.1875 37.0625 C-19.3430341 26.36651096 -33.18757724 17.0271672 -47.42578125 15.7890625 C-53.35416241 15.55516582 -57.59979532 16.57921859 -63 19 C-64.175625 19.495 -64.175625 19.495 -65.375 20 C-67.33538439 21.05034551 -67.33538439 21.05034551 -69 24 C-69.66 24 -70.32 24 -71 24 C-71.185625 25.051875 -71.185625 25.051875 -71.375 26.125 C-72.03891783 29.17902201 -72.99338226 32.04306038 -74 35 C-76.14405869 42.35974756 -75.56924305 50.80870162 -73 58 C-71.78104159 60.2201092 -70.47403 62.29582413 -69.0234375 64.37109375 C-68 66 -68 66 -68 68 C-67.01 68.33 -66.02 68.66 -65 69 C-65 69.66 -65 70.32 -65 71 C-64.41863281 71.26039062 -63.83726563 71.52078125 -63.23828125 71.7890625 C-60.85649744 73.07763664 -59.16420468 74.5311492 -57.1875 76.375 C-53.62386017 79.56317316 -50.20882557 81.74527202 -46 84 C-44.78980179 84.76905383 -43.58433094 85.54557985 -42.3828125 86.328125 C-37.88528349 89.15641464 -33.1956406 91.40597496 -28.375 93.625 C-26.73672219 94.38746892 -25.09869546 95.1504776 -23.4609375 95.9140625 C-22.69749023 96.26887695 -21.93404297 96.62369141 -21.14746094 96.98925781 C-18.40656654 98.27931043 -15.70060345 99.62784873 -13 101 C-13 101.66 -13 102.32 -13 103 C-15.6598868 104.82064665 -18.42577777 106.41596707 -21.203125 108.05078125 C-24.12557705 110.08751808 -25.88564278 112.15782483 -28 115 C-28.804375 115.7425 -29.60875 116.485 -30.4375 117.25 C-33.76638264 120.82245942 -35.77061094 124.68693358 -38 129 C-38.56074219 129.9590625 -38.56074219 129.9590625 -39.1328125 130.9375 C-43.28763905 138.32385832 -44.96396863 146.44838702 -42.9375 154.75 C-40.24819718 162.87637157 -36.7408331 168.03101987 -29.57421875 172.7734375 C-29.05472656 173.17820313 -28.53523438 173.58296875 -28 174 C-28 174.66 -28 175.32 -28 176 C-27.01 176.185625 -27.01 176.185625 -26 176.375 C-23 177 -23 177 -19.5 178.125 C-9.76387086 180.5041293 -1.18046033 178.22635443 7.44140625 173.5703125 C9.99888695 172.06095182 9.99888695 172.06095182 12.21484375 170.3046875 C14 169 14 169 16 169 C16.33 168.01 16.66 167.02 17 166 C17.66 166 18.32 166 19 166 C19.33 165.01 19.66 164.02 20 163 C20.66 163 21.32 163 22 163 C22.33 162.01 22.66 161.02 23 160 C23.66 160 24.32 160 25 160 C25.26554688 159.42765625 25.53109375 158.8553125 25.8046875 158.265625 C27.05756105 155.89089735 28.51225109 153.89533111 30.125 151.75 C33.09219568 147.55882608 35.50487391 143.23549117 37.75 138.62890625 C38.09386749 137.93235428 38.43773499 137.23580231 38.79202271 136.5181427 C39.50955771 135.06467409 40.22553876 133.61043735 40.94000244 132.15545654 C42.59055227 128.79913897 44.26051294 125.45255165 45.9296875 122.10546875 C46.58138659 120.79695956 47.23307926 119.48844717 47.88476562 118.17993164 C48.5480715 116.84906846 49.21148493 115.51825889 49.875 114.1875 C50.22038818 113.49477997 50.56577637 112.80205994 50.92163086 112.08834839 C55.40116039 103.11189185 59.95742535 94.18763139 64.68823242 85.34033203 C67.35571323 80.31966057 69.80837222 75.22539642 72.1875 70.0625 C78.7965106 55.76565743 87.43344937 43.30730706 96.91796875 30.78515625 C98.64732628 28.47177554 100.30596083 26.13233595 101.9375 23.75 C102.618125 22.8425 103.29875 21.935 104 21 C104.66 21 105.32 21 106 21 C106.27585938 20.41734375 106.55171875 19.8346875 106.8359375 19.234375 C111.88944574 9.53435247 119.95202607 2.08337758 129 -3.8125 C129.56912109 -4.18560303 130.13824219 -4.55870605 130.72460938 -4.94311523 C137.41487308 -9.14741578 144.37098094 -11.36572014 152.125 -12.6875 C152.86290771 -12.81342529 153.60081543 -12.93935059 154.36108398 -13.0690918 C170.52145072 -15.63867535 192.06769762 -15.09288562 206.5234375 -6.5 C211.97259689 -2.48287226 217.07082304 2.47559861 221 8 C221 8.99 221 9.98 221 11 C221.66 11 222.32 11 223 11 C231.01365474 31.40117446 231.80624367 50.43737239 223.75 71.1875 C221.24484471 76.90595478 218.13376456 82.29354765 214 87 C213.34 87 212.68 87 212 87 C211.67 87.99 211.34 88.98 211 90 C210.34 90 209.68 90 209 90 C208.67 90.99 208.34 91.98 208 93 C207.34 93 206.68 93 206 93 C205.67 93.99 205.34 94.98 205 96 C202.9067148 97.75305427 200.82267886 99.38963187 198.625 101 C193.54998425 104.6949663 193.54998425 104.6949663 189 109 C189.60457031 109.97710937 190.20914062 110.95421875 190.83203125 111.9609375 C193.15091839 116.02231145 194.4535961 120.13374849 195.6875 124.625 C196.00557617 125.73101562 196.00557617 125.73101562 196.33007812 126.859375 C201.58112726 145.34571832 200.04780267 163.26586368 190.953125 180.3046875 C190.63859375 180.86414063 190.3240625 181.42359375 190 182 C189.34 182 188.68 182 188 182 C187.74476563 182.74378906 187.48953125 183.48757812 187.2265625 184.25390625 C182.51821787 194.79520011 169.91302655 201.56004993 159.76953125 205.67578125 C141.13190283 212.2230932 122.26511145 211.71260374 104.125 204.125 C96.42348532 200.36959475 88.31227819 195.85384458 82 190 C82 189.34 82 188.68 82 188 C81.01 187.67 80.02 187.34 79 187 C77.18911634 184.95190793 75.52349358 182.9210708 73.875 180.75 C73.41996094 180.17636719 72.96492187 179.60273438 72.49609375 179.01171875 C70.01489542 175.77953458 68.06247896 173.15137968 68 169 C69.00390625 166.9296875 69.00390625 166.9296875 70.5625 164.875 C72.99328661 161.49328066 75.10397601 158.11483281 77.0625 154.4375 C78.89313351 151.03501364 80.72370934 147.64036083 82.6875 144.3125 C83.06261719 143.66925781 83.43773437 143.02601563 83.82421875 142.36328125 C84.40623047 141.68845703 84.40623047 141.68845703 85 141 C85.99 141 86.98 141 88 141 C89.31495542 143.60295276 90.62704986 146.20728033 91.9375 148.8125 C92.31068359 149.55048828 92.68386719 150.28847656 93.06835938 151.04882812 C93.42607422 151.76103516 93.78378906 152.47324219 94.15234375 153.20703125 C94.6472229 154.18893433 94.6472229 154.18893433 95.15209961 155.19067383 C96 157 96 157 97 160 C97.99 160.33 98.98 160.66 100 161 C100 161.66 100 162.32 100 163 C100.99 163.33 101.98 163.66 103 164 C103 164.66 103 165.32 103 166 C103.54527344 166.25910156 104.09054688 166.51820313 104.65234375 166.78515625 C107.38375369 168.19858136 109.9477598 169.81851971 112.5625 171.4375 C121.86199941 176.84811784 131.19808338 179.35968181 142 178 C144.99647886 177.0632856 147.41323061 175.76344098 150 174 C151.010625 173.319375 152.02125 172.63875 153.0625 171.9375 C160.47556956 165.2940934 164.99189021 155.81646906 166 146 C165.73463164 132.94719368 158.60526614 123.26665603 149.54785156 114.38330078 C146.11319913 111.31378332 142.3021058 108.71828416 138.47070312 106.171875 C136.95141831 105.15677017 135.47137191 104.08338768 134 103 C134 102.34 134 101.68 134 101 C134.680625 100.8040625 135.36125 100.608125 136.0625 100.40625 C151.78204491 95.55660317 167.70442213 87.62826544 179.2734375 75.6953125 C182 73 182 73 184 73 C184.25652344 72.42507812 184.51304687 71.85015625 184.77734375 71.2578125 C186.11640179 68.78504717 187.67150867 66.95153746 189.5625 64.875 C192.07679216 62.13961955 192.07679216 62.13961955 194 59 C194.66 59 195.32 59 196 59 C196.103125 58.34 196.20625 57.68 196.3125 57 C196.88433843 54.50470505 197.59468817 52.47148716 198.5625 50.125 C200.97156895 43.77597591 200.26542029 38.39939838 197.96875 32.13671875 C194.84524684 25.24737911 188.96070889 20.92639198 182.05859375 18.24609375 C171.87474404 15.30409272 161.41317504 16.75897395 152.13671875 21.6796875 C145.2170482 25.95546199 139.44442764 31.19446545 134.375 37.53125 C133.92125 38.0159375 133.4675 38.500625 133 39 C132.34 39 131.68 39 131 39 C130.71125 39.598125 130.4225 40.19625 130.125 40.8125 C129 43 129 43 127 46 C126.34 46 125.68 46 125 46 C124.7525 46.556875 124.505 47.11375 124.25 47.6875 C123 50 123 50 120.9375 52.5625 C118.83615651 54.92026019 118.83615651 54.92026019 118 58 C117.01 58.495 117.01 58.495 116 59 C114.9250275 60.66988503 114.9250275 60.66988503 113.875 62.75 C111.7732636 66.65146375 109.53092662 70.42604705 107.1875 74.1875 C100.9817934 84.22374595 95.20785583 94.38412899 90 104.97021484 C87.76127103 109.51435367 85.41716023 113.98607848 83 118.4375 C80.16768628 123.6708982 77.5597646 128.97412577 75.0625 134.375 C68.52732251 148.46197372 61.04913792 161.97292444 53.03222656 175.26757812 C52.10524065 176.82337094 51.21790658 178.40262764 50.3359375 179.984375 C49.67464844 180.98210937 49.67464844 180.98210937 49 182 C48.34 182 47.68 182 47 182 C47 182.99 47 183.98 47 185 C45.37946188 186.38903267 43.70294787 187.71332828 42 189 C41.175 189.825 40.35 190.65 39.5 191.5 C29.61110389 201.38889611 17.42836119 206.05551298 4 209 C3.21496094 209.185625 2.42992188 209.37125 1.62109375 209.5625 C-16.9959296 212.66996142 -38.20859736 207.93821079 -53.6875 197.3125 C-66.0115485 187.82973069 -74.83901868 175.62693101 -77 160 C-78.68161178 141.06477796 -73.61506966 123.83059985 -65 107 C-65.87914062 106.74605469 -66.75828125 106.49210937 -67.6640625 106.23046875 C-73.16211184 104.20249973 -77.40608515 100.57012811 -82 97 C-82.71671875 96.46375 -83.4334375 95.9275 -84.171875 95.375 C-98.08929573 84.24106342 -105.46317946 66.86014264 -107.59765625 49.59375 C-109.05129817 35.15840205 -105.89658808 20.13519833 -97.0625 8.43359375 C-71.7605532 -21.1606476 -30.38215418 -21.84621563 0 0 Z " fill="#F2CCD0" transform="translate(124,27)"/>
<path d="M0 0 C0.495 6.435 0.495 6.435 1 13 C1.66 12.29875 2.32 11.5975 3 10.875 C11.05120721 2.86940869 17.7167634 -0.17286734 29.09765625 -0.36328125 C33.63654798 0.20484383 36.19446392 2.12733591 39.25 5.4375 C41.92977915 9.36146233 42.12505241 12.62787073 42.15771484 17.31591797 C42.16797699 18.3773703 42.17823914 19.43882263 42.18881226 20.53244019 C42.19611359 21.6741568 42.20341492 22.81587341 42.2109375 23.9921875 C42.23900225 26.41276722 42.26766669 28.83334006 42.296875 31.25390625 C42.33815485 35.06786942 42.37504626 38.88170335 42.40136719 42.69580078 C42.42897923 46.37819932 42.47484692 50.06001401 42.5234375 53.7421875 C42.5283168 55.44868973 42.5283168 55.44868973 42.53329468 57.18966675 C42.62281109 62.95925798 42.93210454 66.94729539 46 72 C46 72.99 46 73.98 46 75 C39.07 75 32.14 75 25 75 C26 70 26 70 27.04533386 68.00926208 C28.23778781 65.49953391 28.26045803 63.62506114 28.2746582 60.85180664 C28.28419022 59.82716812 28.29372223 58.8025296 28.30354309 57.74684143 C28.30263168 56.64573532 28.30172028 55.54462921 28.30078125 54.41015625 C28.30720894 52.70514198 28.30720894 52.70514198 28.31376648 50.96568298 C28.31950791 48.5624966 28.32001143 46.15929284 28.31567383 43.75610352 C28.31251499 40.07993919 28.33597256 36.40458039 28.36132812 32.72851562 C28.36360124 30.39323018 28.36430456 28.05794257 28.36328125 25.72265625 C28.372491 24.62357437 28.38170074 23.52449249 28.39118958 22.3921051 C28.38496078 21.36431442 28.37873199 20.33652374 28.37231445 19.27758789 C28.37294388 18.37698135 28.3735733 17.47637482 28.3742218 16.54847717 C27.91712017 13.43558246 26.82390243 11.54233626 25 9 C21.74032806 7.37016403 18.52222349 7.46576504 15 8 C8.80638301 10.5150551 3.53588309 15.38135063 0 21 C-0.86512949 24.51982228 -0.75977555 27.81049497 -0.5703125 31.4140625 C-0.53283401 32.8739711 -0.53283401 32.8739711 -0.49459839 34.3633728 C-0.43519081 36.40947639 -0.35857293 38.45514553 -0.265625 40.5 C-0.12511854 43.62236572 -0.03853435 46.74268646 0.0390625 49.8671875 C0.10362839 51.86208335 0.17123332 53.85688365 0.2421875 55.8515625 C0.2705368 56.77981842 0.29888611 57.70807434 0.32809448 58.66445923 C0.58087377 63.88045678 1.37034519 67.37799496 4 72 C4 72.99 4 73.98 4 75 C-2.93 75 -9.86 75 -17 75 C-16 70 -16 70 -14.94970703 68.01269531 C-13.75334829 65.47727591 -13.77218448 63.59213456 -13.8046875 60.796875 C-13.81113281 59.8171875 -13.81757812 58.8375 -13.82421875 57.828125 C-13.84097656 56.81234375 -13.85773438 55.7965625 -13.875 54.75 C-13.88402344 53.71875 -13.89304687 52.6875 -13.90234375 51.625 C-13.92587989 49.08309713 -13.95875977 46.5416672 -14 44 C-14.40089844 44.67804688 -14.80179688 45.35609375 -15.21484375 46.0546875 C-19.50073372 53.07149602 -24.23932796 59.1362748 -30 65 C-30.58652344 65.59941406 -31.17304687 66.19882813 -31.77734375 66.81640625 C-39.16948471 73.75632211 -47.2910104 75.59195777 -57.24243164 75.39575195 C-66.757254 74.97400166 -71.79006929 72.14035014 -78.7265625 65.609375 C-88.00964246 54.95456844 -87.79226737 41.33063212 -87 28 C-85.76213773 19.53428095 -81.52883677 11.48092056 -74.75 6.125 C-65.50839776 0.3062134 -54.78703169 -0.20552373 -44.19921875 1.43359375 C-36.58754681 3.33947117 -30.46221777 7.23425518 -26.140625 13.84375 C-23.02760547 19.7140154 -21.74079843 24.47401839 -21 31 C-22.20011719 31.34256836 -23.40023437 31.68513672 -24.63671875 32.03808594 C-29.11932189 33.31988422 -33.5988858 34.6120386 -38.07763672 35.90722656 C-40.01075105 36.46471283 -41.94466178 37.01944567 -43.87939453 37.57128906 C-46.67177478 38.36828992 -49.46107253 39.17538602 -52.25 39.984375 C-53.10553467 40.22621521 -53.96106934 40.46805542 -54.8425293 40.71722412 C-62.79050304 43.03382379 -62.79050304 43.03382379 -70 47 C-71.62194177 51.21704859 -71.25792349 54.03007025 -69.5 58.0625 C-66.65061786 63.16557464 -62.57342833 67.14219056 -57 69 C-49.38491484 69.68817807 -43.36852309 69.40361772 -37 65 C-36.44183594 64.63390625 -35.88367188 64.2678125 -35.30859375 63.890625 C-29.29697802 59.37145215 -25.29064575 52.83602508 -21.15283203 46.66308594 C-20.1749042 45.25231838 -19.10931525 43.90295859 -18.02734375 42.5703125 C-12.43875572 35.14528538 -13.07718511 26.10705508 -13.65185547 17.19335938 C-14.13733469 14.13477217 -15.55850561 11.71434598 -17 9 C-17.12109375 6.796875 -17.12109375 6.796875 -16 5 C-13.64211359 3.86726064 -11.53288354 3.02857479 -9.0625 2.25 C-8.41603516 2.02957031 -7.76957031 1.80914062 -7.10351562 1.58203125 C-2.3721613 0 -2.3721613 0 0 0 Z M-67.6875 10.6875 C-73.59843466 18.34700697 -74.16523264 27.55003733 -74.0625 36.875 C-74.05798828 37.65875 -74.05347656 38.4425 -74.04882812 39.25 C-74.03714093 41.16670014 -74.01920908 43.08336048 -74 45 C-72.99710937 44.27296875 -71.99421875 43.5459375 -70.9609375 42.796875 C-64.72355616 38.89885528 -57.6387425 37.22951143 -50.625 35.25 C-48.55865169 34.65459519 -46.49332242 34.05578406 -44.42831421 33.45574951 C-42.57186083 32.91821838 -40.71299021 32.38905639 -38.85400391 31.86035156 C-36.08754314 31.11461621 -36.08754314 31.11461621 -34 30 C-35.03368388 20.74312944 -36.67910572 14.01225898 -43.625 7.5625 C-51.57501924 2.33222418 -61.22604598 4.22604598 -67.6875 10.6875 Z " fill="#EDC5C8" transform="translate(555,38)"/>
<path d="M0 0 C0 6.27 0 12.54 0 19 C3.63 19 7.26 19 11 19 C11 20.32 11 21.64 11 23 C7.37 23 3.74 23 0 23 C0.08548292 30.64099191 0.17922319 38.28179671 0.28752708 45.92249775 C0.3374857 49.47034604 0.38381555 53.01816463 0.421875 56.56616211 C0.46578269 60.64456014 0.5254323 64.72259545 0.5859375 68.80078125 C0.59748871 70.07585037 0.60903992 71.35091949 0.62094116 72.66462708 C0.64081085 73.84562485 0.66068054 75.02662262 0.68115234 76.2434082 C0.69447601 77.28487503 0.70779968 78.32634186 0.7215271 79.39936829 C0.82217776 82.2348051 0.82217776 82.2348051 3 85 C7.35300737 85.40305624 10.22294505 85.15831711 14 83 C14.99 83 15.98 83 17 83 C16.65718511 85.71927744 16.31710185 86.74738218 14.13671875 88.484375 C7.42759182 91.95129226 1.53027344 93.20128439 -6 92 C-10.25163556 89.7041168 -11.48617495 87.46450098 -13 83 C-13.2759478 81.07096868 -13.48449903 79.1310968 -13.625 77.1875 C-13.69976563 76.21167969 -13.77453125 75.23585938 -13.8515625 74.23046875 C-13.90054688 73.49441406 -13.94953125 72.75835937 -14 72 C-14.38929688 72.56847656 -14.77859375 73.13695313 -15.1796875 73.72265625 C-21.84570106 82.92298373 -30.67924373 89.74916728 -42 92 C-54.32732505 93.26143922 -65.13526341 92.73257433 -75.25 85 C-82.28571043 78.40669732 -85.86129848 69.19297076 -86.203125 59.70703125 C-86.41194174 46.74189034 -85.67403744 36.33110591 -77 26 C-70.46335189 19.57550027 -62.03023755 17.8570503 -53.125 17.5625 C-44.2633326 17.78428275 -35.10690337 19.6890443 -28.53125 26.0390625 C-23.23143498 32.82607051 -20.94299311 39.61221098 -20 48 C-21.20011719 48.34256836 -22.40023437 48.68513672 -23.63671875 49.03808594 C-28.11932189 50.31988422 -32.5988858 51.6120386 -37.07763672 52.90722656 C-39.01075105 53.46471283 -40.94466178 54.01944567 -42.87939453 54.57128906 C-45.67177478 55.36828992 -48.46107253 56.17538602 -51.25 56.984375 C-52.10553467 57.22621521 -52.96106934 57.46805542 -53.8425293 57.71722412 C-59.05476747 59.24196121 -64.51466282 60.84425256 -69 64 C-70.47609095 67.58479231 -70.49887705 69.63452901 -69.16796875 73.27734375 C-66.40712357 78.82673489 -63.30106561 81.85862779 -58 85 C-51.18174158 87.27275281 -41.72907399 87.18873788 -35.0625 84.375 C-33.68306238 83.62823678 -32.32722561 82.83604763 -31 82 C-30.30390625 81.5875 -29.6078125 81.175 -28.890625 80.75 C-21.15962446 75.63475153 -17.33908178 68.55402217 -15.375 59.6171875 C-13.81665616 51.94858801 -13.45162561 44.43193445 -13.3125 36.625 C-13.27919839 35.29163606 -13.24469781 33.95830152 -13.20898438 32.625 C-13.12761576 29.41675187 -13.05811304 26.20873894 -13 23 C-14.98 23 -16.96 23 -19 23 C-19 21.68 -19 20.36 -19 19 C-17.35 18.67 -15.7 18.34 -14 18 C-15.12928959 13.88615934 -16.37885042 9.94388909 -18 6 C-14.66666667 4.66666667 -11.33333333 3.33333333 -8 2 C-7.12730469 1.62617188 -6.25460937 1.25234375 -5.35546875 0.8671875 C-3 0 -3 0 0 0 Z M-66.6875 27.6875 C-72.59843466 35.34700697 -73.16523264 44.55003733 -73.0625 53.875 C-73.05798828 54.65875 -73.05347656 55.4425 -73.04882812 56.25 C-73.03714093 58.16670014 -73.01920908 60.08336048 -73 62 C-71.99710938 61.27296875 -70.99421875 60.5459375 -69.9609375 59.796875 C-63.72355616 55.89885528 -56.6387425 54.22951143 -49.625 52.25 C-47.55865169 51.65459519 -45.49332242 51.05578406 -43.42831421 50.45574951 C-41.57186083 49.91821838 -39.71299021 49.38905639 -37.85400391 48.86035156 C-35.08754314 48.11461621 -35.08754314 48.11461621 -33 47 C-34.03368388 37.74312944 -35.67910572 31.01225898 -42.625 24.5625 C-50.57501924 19.33222418 -60.22604598 21.22604598 -66.6875 27.6875 Z " fill="#EDC5C8" transform="translate(824,21)"/>
<path d="M0 0 C5.35275303 -0.07482879 10.70519351 -0.12891907 16.05834961 -0.16479492 C17.8748099 -0.17976973 19.69123474 -0.20015684 21.50756836 -0.22631836 C48.84048025 -0.60980626 48.84048025 -0.60980626 59 9 C63.68209038 15.05272574 64.819257 21.27117462 64.47265625 28.81640625 C63.55157796 35.02036331 61.54034416 39.88021449 56.6640625 43.94921875 C54.48933827 45.42075928 52.31327469 46.76020572 50 48 C50.72445312 48.35191406 51.44890625 48.70382813 52.1953125 49.06640625 C60.29773089 53.20404124 65.98355862 57.18777605 69 66 C70.44285007 73.67968587 70.65864296 81.17957522 66.80859375 88.16015625 C61.51570106 95.8759535 54.82201782 99.24454524 45.88330078 101.39575195 C37.41308494 102.7137316 28.79878266 102.30191553 20.25 102.1875 C18.28126026 102.17242319 16.31250933 102.1587401 14.34375 102.14648438 C9.56221942 102.11372255 4.78123577 102.06210638 0 102 C0.61277612 99.03824877 1.25372522 97.61941217 3 95 C3.19990146 92.18227283 3.28332328 89.46314385 3.2746582 86.64477539 C3.27976913 85.79244827 3.28488007 84.94012115 3.29014587 84.06196594 C3.30406226 81.24045823 3.30308357 78.41919423 3.30078125 75.59765625 C3.30466705 73.63854379 3.30900148 71.67943217 3.31376648 69.72032166 C3.32123309 65.61210399 3.32093421 61.50397225 3.31567383 57.39575195 C3.3098786 52.12850297 3.32680938 46.86160555 3.3500185 41.59441471 C3.36474312 37.54782552 3.36562927 33.50132124 3.36250877 29.45471001 C3.36302263 27.51262147 3.36827231 25.57052826 3.37832069 23.62846565 C3.39064314 20.91361709 3.38391872 18.19945651 3.37231445 15.48461914 C3.37995819 14.68084839 3.38760193 13.87707764 3.39547729 13.0489502 C3.35388218 8.65118523 2.93127444 6.28952483 0 3 C0 2.01 0 1.02 0 0 Z M18 4 C18 18.19 18 32.38 18 47 C33.44505036 47.75205878 33.44505036 47.75205878 46.5 41.1875 C51.50714627 35.99113018 51.43620908 28.98384824 51.3125 22.1953125 C50.71193969 16.05458331 48.45115555 12.51711717 44.25 8.125 C35.77101032 2.58104521 28.4381881 4 18 4 Z M18 51 C18 66.51 18 82.02 18 98 C34.32747435 98.50889807 34.32747435 98.50889807 48.9375 93.3125 C53.76801988 87.89646256 55.69047467 81.94644799 56.25 74.8125 C55.83339366 68.45925337 54.24871456 63.10720583 51 57.625 C41.24599362 49.09024442 31.08773885 51 18 51 Z " fill="#E9BFC2" transform="translate(393,11)"/>
<path d="M0 0 C0.00808685 1.12451065 0.01617371 2.2490213 0.02450562 3.40760803 C0.10206047 14.01586783 0.18982339 24.62400085 0.28752708 35.23209476 C0.33742836 40.68554717 0.38375902 46.13898078 0.421875 51.5925293 C0.45880561 56.85755057 0.50518681 62.12241225 0.55806351 67.38729668 C0.57656613 69.39385612 0.59168927 71.40044972 0.60334396 73.40706062 C0.62027713 76.22214147 0.64932927 79.03686008 0.68115234 81.85180664 C0.68331253 82.67755692 0.68547272 83.50330719 0.68769836 84.3540802 C0.80535626 92.89508176 0.80535626 92.89508176 5 100 C5 100.99 5 101.98 5 103 C-0.94 103 -6.88 103 -13 103 C-13.33 102.01 -13.66 101.02 -14 100 C-14.598125 100.474375 -15.19625 100.94875 -15.8125 101.4375 C-22.27492927 104.60535749 -29.8941869 104.70922395 -36.8046875 102.8515625 C-43.81220807 100.13334278 -49.53197639 95.71758904 -53 89 C-58.41803718 75.97849887 -59.1780931 60.21077599 -54 47 C-50.36376639 38.84178356 -44.15271008 33.06108403 -35.875 29.75 C-27.44373483 28.11814223 -20.73399201 28.33602129 -13 32 C-13.08719463 28.93616098 -13.19410397 25.87515949 -13.3125 22.8125 C-13.34633789 21.51602539 -13.34633789 21.51602539 -13.38085938 20.19335938 C-13.58988113 15.23384322 -14.07609072 12.16245531 -17 8 C-17 7.01 -17 6.02 -17 5 C-14.73117913 4.16080602 -12.46022973 3.32848276 -10.1875 2.5 C-9.54490234 2.26152344 -8.90230469 2.02304688 -8.24023438 1.77734375 C-5.35066261 0.72931254 -3.09923939 0 0 0 Z M-38.1875 39.1875 C-46.8575323 52.6409984 -44.738708 70.4516222 -42.046875 85.40625 C-40.34007296 91.26542117 -37.2626723 95.84239662 -32 99 C-27.75273483 100.1295095 -24.30818061 100.52327224 -20.1875 98.875 C-16.78187807 95.95589549 -14.42676855 93.28030566 -13 89 C-12.89896099 87.51312165 -12.85170807 86.02223448 -12.83886719 84.53198242 C-12.82925964 83.63062057 -12.8196521 82.72925873 -12.80975342 81.80058289 C-12.80550354 80.82869522 -12.80125366 79.85680756 -12.796875 78.85546875 C-12.78832489 77.35165398 -12.78832489 77.35165398 -12.77960205 75.81745911 C-12.7701534 73.69496719 -12.7636186 71.57246062 -12.75976562 69.44995117 C-12.75006888 66.21051274 -12.71904752 62.97171116 -12.6875 59.73242188 C-12.68096887 57.6692746 -12.67571883 55.60612279 -12.671875 53.54296875 C-12.6595282 52.57715378 -12.6471814 51.61133881 -12.63446045 50.61625671 C-12.65616074 44.03032868 -13.60306005 39.67893289 -18.125 34.625 C-25.87887932 30.24237256 -32.27712839 33.27712839 -38.1875 39.1875 Z " fill="#EDC6C9" transform="translate(730,10)"/>
<path d="M0 0 C37.76 0 37.76 0 45.6953125 7.40234375 C49.45442183 12.00556445 49.42506017 16.24065863 49.3125 22.0234375 C48.71573639 27.70761089 46.16464622 31.16361491 41.875 34.875 C39 37 39 37 37 38 C38.2684375 38.43699219 38.2684375 38.43699219 39.5625 38.8828125 C49.79947508 42.58208304 57.17386393 45.96163698 62 56 C62.33 56.66 62.66 57.32 63 58 C63.68682583 68.36994411 64.0286507 77.30424228 57.5625 85.9140625 C51.88346768 92.3302769 44.25236132 95.34952774 36 97 C24.12 97 12.24 97 0 97 C0 64.99 0 32.98 0 0 Z M11 4 C11 15.22 11 26.44 11 38 C23.53427707 38.71122758 23.53427707 38.71122758 33.78125 33.34765625 C38.54650064 28.03170448 39.37224888 23.80474083 39.26953125 16.7265625 C38.81223717 12.10060205 37.01245153 9.6894001 33.515625 6.75390625 C26.30822209 2.14563315 20.04804159 4 11 4 Z M11 42 C11 59.16 11 76.32 11 94 C28.89326435 95.088977 28.89326435 95.088977 44.10546875 88.3046875 C49.99887253 82.30192159 52.05445865 75.20746675 52.375 66.9375 C52.08941938 59.02815836 49.80203881 52.54417042 44 47 C33.39794254 40.29038149 24.24629246 42 11 42 Z " fill="#B0B2BB" transform="translate(441,128)"/>
<path d="M0 0 C5.73834597 6.43390306 5.49148087 14.17547076 5.46875 22.328125 C5.47958618 23.46151306 5.49042236 24.59490112 5.50158691 25.76263428 C5.54730144 30.58618194 5.55897313 35.40967278 5.57373047 40.23339844 C5.58939138 43.76517013 5.62237007 47.29648881 5.65625 50.828125 C5.65322876 51.91981995 5.65020752 53.01151489 5.64709473 54.1362915 C5.65720581 55.15124695 5.66731689 56.16620239 5.67773438 57.21191406 C5.67978882 58.10267639 5.68184326 58.99343872 5.68395996 59.91119385 C6.1364041 62.78131794 7.28637092 64.0637305 9.0625 66.3125 C9.0625 67.3025 9.0625 68.2925 9.0625 69.3125 C3.1225 69.3125 -2.8175 69.3125 -8.9375 69.3125 C-9.2675 67.9925 -9.5975 66.6725 -9.9375 65.3125 C-11.3915625 66.3025 -11.3915625 66.3025 -12.875 67.3125 C-17.37913599 69.58071185 -21.55569063 69.72864921 -26.5 69.75 C-27.21986084 69.75966797 -27.93972168 69.76933594 -28.68139648 69.77929688 C-35.75505135 69.66928921 -41.90004958 67.4898796 -46.9375 62.3125 C-50.6146629 55.6817926 -50.84052679 48.95286214 -48.875 41.75 C-45.71627277 33.31706767 -39.21016823 29.49454182 -31.34765625 25.796875 C-24.31452705 22.73549001 -17.21739629 19.7391321 -9.9375 17.3125 C-9.25278078 9.3719782 -9.25278078 9.3719782 -11.8125 2.0625 C-16.86864532 -0.76894138 -21.58996061 -0.46091739 -27.15234375 0.82421875 C-34.54955472 3.28049034 -39.14961305 8.43023889 -43.9375 14.3125 C-44.2675 14.3125 -44.5975 14.3125 -44.9375 14.3125 C-44.9375 10.0225 -44.9375 5.7325 -44.9375 1.3125 C-42.70986012 0.49559823 -40.4805514 -0.31611872 -38.25 -1.125 C-37.31124023 -1.47014648 -37.31124023 -1.47014648 -36.35351562 -1.82226562 C-24.34381681 -6.16084792 -11.29962863 -6.49127602 0 0 Z M-29.7734375 34.8359375 C-34.3761937 39.84934853 -36.62722875 43.89951624 -37.25 50.75 C-36.78659115 56.03286092 -35.30343977 59.74568673 -31.8125 63.75 C-27.7753265 65.94411603 -24.43685216 65.96434961 -19.9375 65.3125 C-14.57994904 63.39186852 -11.47912784 60.39575568 -8.9375 55.3125 C-8.85091431 52.75887396 -8.82187484 50.2329558 -8.83984375 47.6796875 C-8.8412587 46.92785187 -8.84267365 46.17601624 -8.84413147 45.40139771 C-8.84973535 42.9967249 -8.86228843 40.59214473 -8.875 38.1875 C-8.8800145 36.55859509 -8.8845775 34.92968873 -8.88867188 33.30078125 C-8.89970603 29.30465173 -8.91697321 25.30859158 -8.9375 21.3125 C-15.00353933 21.3125 -25.40672964 30.95040957 -29.7734375 34.8359375 Z " fill="#ECC4C7" transform="translate(927.9375,43.6875)"/>
<path d="M0 0 C6.04055183 4.76274279 8.97901579 11.1508999 10.26635742 18.56787109 C10.44059738 19.56096283 10.61483734 20.55405457 10.7943573 21.57723999 C10.92409439 22.33550079 11.05383148 23.0937616 11.1875 23.875 C10.64958832 24.02898254 10.11167664 24.18296509 9.5574646 24.34161377 C3.94072167 25.95168896 -1.67164653 27.57637697 -7.28173828 29.20947266 C-9.37375816 29.81639472 -11.46685163 30.41962917 -13.56103516 31.01904297 C-16.57747096 31.8831336 -19.58974962 32.76057524 -22.6015625 33.640625 C-23.53304108 33.90433899 -24.46451965 34.16805298 -25.42422485 34.4397583 C-30.52017121 35.94440514 -34.69986385 37.45295271 -38.8125 40.875 C-39.75608256 45.33557212 -38.90894141 48.16493829 -36.6875 52 C-33.57863237 56.54848531 -30.14312813 60.09812396 -24.8125 61.875 C-16.64462733 62.73348512 -10.35500164 62.07407215 -3.8125 56.875 C-2.01857569 54.95518627 -0.44437443 52.93884119 1.1875 50.875 C2.1775 50.875 3.1675 50.875 4.1875 50.875 C3.5627522 56.48796856 0.88657721 58.5331065 -3.3125 62.00390625 C-11.99707127 68.50376506 -21.21469291 69.33295508 -31.8125 67.875 C-39.49909153 65.66766876 -45.80765679 60.65072259 -50.05859375 53.89453125 C-56.05394237 42.54070255 -56.55179061 28.81851135 -54.125 16.33984375 C-51.31378625 8.01162302 -46.60600249 1.16455872 -38.859375 -3.16015625 C-26.29837156 -9.08108726 -11.6055634 -7.12044392 0 0 Z M-35.5 3.5625 C-41.33202764 11.10100519 -41.96914741 20.0117482 -41.875 29.1875 C-41.87048828 30.02345703 -41.86597656 30.85941406 -41.86132812 31.72070312 C-41.84960548 33.77216649 -41.83167203 35.82359273 -41.8125 37.875 C-40.98202148 37.29927246 -40.98202148 37.29927246 -40.13476562 36.71191406 C-32.89916659 32.0061425 -25.61933906 29.77926324 -17.3125 27.625 C-14.80055124 26.95887594 -12.29004419 26.28728322 -9.78125 25.609375 C-8.68232422 25.32288086 -7.58339844 25.03638672 -6.45117188 24.74121094 C-3.69190909 24.05526688 -3.69190909 24.05526688 -1.8125 21.875 C-2.14601359 14.97383427 -4.48491045 7.386 -9.30078125 2.3046875 C-14.16831583 -1.92269985 -18.11130651 -2.42607113 -24.3125 -2.3359375 C-29.32410094 -1.91308367 -32.01609839 0.07859839 -35.5 3.5625 Z " fill="#EEC6C9" transform="translate(659.8125,45.125)"/>
<path d="M0 0 C6.13189209 4.50429111 9.12230894 9.00920801 10.8984375 16.39453125 C11.08893451 19.17328414 11.19881371 21.86011983 11.20703125 24.63671875 C11.23219107 26.21354537 11.2575891 27.7903682 11.28320312 29.3671875 C11.31187027 31.81786104 11.33592935 34.26846904 11.35473633 36.71923828 C11.29940195 49.38685422 11.29940195 49.38685422 14.8984375 61.39453125 C17.44632603 63.27584694 17.44632603 63.27584694 19.8984375 64.39453125 C19.8984375 65.38453125 19.8984375 66.37453125 19.8984375 67.39453125 C13.81906967 67.12433712 9.72069454 66.43176971 4.8984375 62.39453125 C2.64550024 59.82868603 0.7923834 57.2354501 -1.1015625 54.39453125 C-1.57464844 54.9978125 -2.04773438 55.60109375 -2.53515625 56.22265625 C-7.0708057 61.70433784 -10.99814712 65.85031052 -18.1015625 67.39453125 C-25.81006702 68.09530439 -32.29955784 68.44805147 -39.1015625 64.39453125 C-43.15017633 60.7836054 -43.94247431 57.18952553 -44.26171875 51.95703125 C-43.90608461 46.26688509 -41.31016899 42.63124486 -37.4140625 38.64453125 C-26.94561788 30.92275774 -12.85502098 28.58431153 -0.1015625 29.39453125 C-0.35835813 26.85074395 -0.63148792 24.31047751 -0.9140625 21.76953125 C-0.98431641 21.05667969 -1.05457031 20.34382813 -1.12695312 19.609375 C-1.79608596 13.77453664 -3.14945134 9.24653415 -7.5390625 5.08203125 C-12.33120988 1.92622688 -17.49805389 1.83701522 -23.1015625 2.39453125 C-25.61372665 3.18048664 -27.73057289 4.20903644 -30.1015625 5.39453125 C-31.0915625 5.72453125 -32.0815625 6.05453125 -33.1015625 6.39453125 C-34.27109666 8.81836202 -34.27109666 8.81836202 -35.1015625 11.39453125 C-35.4315625 12.05453125 -35.7615625 12.71453125 -36.1015625 13.39453125 C-36.71406818 19.28400891 -36.01594259 23.17293359 -33.1015625 28.39453125 C-33.1015625 29.71453125 -33.1015625 31.03453125 -33.1015625 32.39453125 C-36.33440291 31.39123595 -37.1167375 30.36851697 -38.8515625 27.39453125 C-41.10910414 21.44057527 -40.78287104 15.58189026 -38.9140625 9.58203125 C-35.80290271 4.11068127 -31.50001557 -0.13589214 -25.4296875 -2.1640625 C-17.4026207 -3.68597282 -7.31805808 -3.96745294 0 0 Z M-27.1015625 39.39453125 C-31.10727014 43.59563927 -32.4613414 46.4297602 -32.38671875 52.29296875 C-31.92005346 55.73222798 -30.32030663 57.80599643 -28.1015625 60.39453125 C-24.67351764 62.995117 -21.2856299 62.81293799 -17.1015625 62.39453125 C-11.52146861 60.52742759 -7.09843303 57.55640078 -4.1015625 52.39453125 C-0.88902916 45.6113461 0.38872935 39.87148196 -0.1015625 32.39453125 C-9.79365888 32.20033624 -18.93763704 33.99306828 -27.1015625 39.39453125 Z " fill="#B0B2BA" transform="translate(869.1015625,158.60546875)"/>
<path d="M0 0 C3.10882882 2.40852422 5.11109364 4.94874978 6.85546875 8.4375 C6.85546875 12.3975 6.85546875 16.3575 6.85546875 20.4375 C-8.65453125 20.4375 -24.16453125 20.4375 -40.14453125 20.4375 C-40.80086815 39.84055376 -40.80086815 39.84055376 -31.8984375 56.03515625 C-26.42505371 60.41142525 -20.60505625 62.14561159 -13.6328125 61.8203125 C-7.83449766 60.92826406 -3.55906433 58.78916494 0.66796875 54.75 C3.26367689 50.81935625 5.11851941 46.80413241 6.85546875 42.4375 C7.84546875 42.9325 7.84546875 42.9325 8.85546875 43.4375 C8.42318117 50.35410123 6.09126096 55.47625985 0.921875 60.20703125 C-6.92130217 66.30069064 -14.26766781 67.5220984 -24.14453125 67.4375 C-33.97492579 65.97391769 -41.50899835 61.66733467 -47.49609375 53.62109375 C-53.78931686 44.21806156 -54.50740621 33.6720134 -52.6796875 22.62890625 C-50.13114386 12.96253658 -44.73184636 5.53718713 -36.14453125 0.4375 C-35.45101562 0.02371094 -34.7575 -0.39007813 -34.04296875 -0.81640625 C-24.01873426 -5.75962841 -9.60790269 -5.82096686 0 0 Z M-35.953125 8.65625 C-38.00514307 11.72418521 -39.14453125 13.68878149 -39.14453125 17.4375 C-34.802913 17.48702706 -30.4614455 17.52327954 -26.11962891 17.54736328 C-24.64336278 17.55740591 -23.16711646 17.57104265 -21.69091797 17.58837891 C-19.56603091 17.61270421 -17.4414074 17.6240004 -15.31640625 17.6328125 C-14.03862305 17.64328613 -12.76083984 17.65375977 -11.44433594 17.66455078 C-8.35306232 17.45184847 -6.66741438 17.17665628 -4.14453125 15.4375 C-2.69305222 12.53454195 -2.772141 10.66488221 -3.14453125 7.4375 C-5.92172973 3.31137654 -8.22831846 0.55482109 -13.14453125 -0.5625 C-22.61926741 -1.74684202 -30.00514564 1.20009354 -35.953125 8.65625 Z " fill="#B0B2BA" transform="translate(687.14453125,159.5625)"/>
<path d="M0 0 C3.54109516 2.73596195 5.44837764 5.21232042 6.85546875 9.43359375 C6.85546875 13.06359375 6.85546875 16.69359375 6.85546875 20.43359375 C-8.98453125 20.43359375 -24.82453125 20.43359375 -41.14453125 20.43359375 C-40.78469769 40.70714135 -40.78469769 40.70714135 -31.0546875 56.83984375 C-25.99109951 61.0646779 -20.22265139 62.07368892 -13.734375 61.84375 C-7.55557076 60.86520634 -2.00758902 58.09945331 1.79296875 53.05859375 C3.88611764 49.68134997 5.42113723 46.13265924 6.85546875 42.43359375 C7.84546875 42.92859375 7.84546875 42.92859375 8.85546875 43.43359375 C8.54630944 50.69883761 5.34955948 55.83254106 0.32421875 61.01171875 C-6.35854565 66.44965449 -15.26054735 67.76751769 -23.64453125 67.49609375 C-31.96298825 66.56738246 -39.86700372 63.33302184 -45.64453125 57.12109375 C-53.00965082 47.34438636 -54.21146078 36.29191949 -53.14453125 24.43359375 C-50.79416788 13.3801706 -44.88824486 6.23001139 -35.8046875 -0.12109375 C-25.63021422 -5.64907483 -9.9863035 -6.06740987 0 0 Z M-35.6015625 8.10546875 C-37.57811017 11.08780396 -38.80975194 14.11468303 -40.14453125 17.43359375 C-35.82124321 17.50799505 -31.4982987 17.56231343 -27.17456055 17.59838867 C-25.70509343 17.61343441 -24.23567091 17.63387613 -22.76635742 17.65991211 C-20.64881355 17.6964833 -18.5318656 17.71336176 -16.4140625 17.7265625 C-15.14151611 17.74227295 -13.86896973 17.7579834 -12.55786133 17.77416992 C-8.61236961 17.38049558 -5.96600123 16.25506373 -3.14453125 13.43359375 C-3.12585195 8.24810848 -3.12585195 8.24810848 -5.4453125 3.828125 C-10.07403316 -0.08848479 -13.90435307 -0.88307098 -19.7421875 -0.76953125 C-26.93666791 -0.16121746 -30.96774725 2.69017871 -35.6015625 8.10546875 Z " fill="#B0B2BA" transform="translate(564.14453125,159.56640625)"/>
<path d="M0 0 C10.23 0 20.46 0 31 0 C31 0.33 31 0.66 31 1 C26.38 1.33 21.76 1.66 17 2 C17 16.52 17 31.04 17 46 C20.96 46.33 24.92 46.66 29 47 C29 47.33 29 47.66 29 48 C23.06 48.495 23.06 48.495 17 49 C17 64.84 17 80.68 17 97 C20.96 97.33 24.92 97.66 29 98 C29 98.33 29 98.66 29 99 C19.43 99 9.86 99 0 99 C0.66 97.02 1.32 95.04 2 93 C2.28956799 90.93424472 2.28956799 90.93424472 2.25396729 88.97129822 C2.25960693 88.22983047 2.26524658 87.48836273 2.27105713 86.72442627 C2.26700867 85.93098816 2.26296021 85.13755005 2.25878906 84.32006836 C2.2622937 83.46890945 2.26579834 82.61775055 2.26940918 81.74079895 C2.27817828 78.94039645 2.27239493 76.14024861 2.265625 73.33984375 C2.26697291 71.38741508 2.2689145 69.43498673 2.27142334 67.4825592 C2.27436796 63.39646195 2.27009775 59.31045229 2.26074219 55.22436523 C2.24934051 49.98987587 2.25591588 44.75559145 2.26788712 39.52110958 C2.2751171 35.49164793 2.27281267 31.4622348 2.26763153 27.43277168 C2.26629858 25.50268085 2.26793032 23.57258559 2.27259064 21.64249992 C2.27767537 18.94506035 2.26991856 16.24795204 2.25878906 13.55053711 C2.26283752 12.75507477 2.26688599 11.95961243 2.27105713 11.14004517 C2.23716102 6.70053235 1.70250447 4.25626118 0 0 Z " fill="#F0C9CD" transform="translate(394,13)"/>
<path d="M0 0 C0 6.27 0 12.54 0 19 C3.63 19 7.26 19 11 19 C11 20.32 11 21.64 11 23 C7.37 23 3.74 23 0 23 C0.10823346 30.34560681 0.22037602 37.69112912 0.33933926 45.03657055 C0.39442775 48.44760718 0.44782454 51.85865257 0.49731445 55.26977539 C0.5543274 59.19425973 0.61877172 63.11860532 0.68359375 67.04296875 C0.70030624 68.26396774 0.71701874 69.48496674 0.73423767 70.7429657 C0.75418289 71.8837709 0.77412811 73.02457611 0.79467773 74.19995117 C0.81799416 75.7021949 0.81799416 75.7021949 0.84178162 77.23478699 C0.99501775 79.91292422 1.4046512 82.38784582 2 85 C7.4389165 85.21755666 11.87080814 85.10428384 17 83 C17.33 83.99 17.66 84.98 18 86 C10.1882951 90.65378164 3.21935138 93.87464808 -6 92 C-9.96472765 89.22469064 -11.50057869 86.51027747 -13 82 C-13.24050903 79.15885925 -13.24050903 79.15885925 -13.22705078 76.01635742 C-13.22682419 74.24508736 -13.22682419 74.24508736 -13.22659302 72.43803406 C-13.21110916 70.54091423 -13.21110916 70.54091423 -13.1953125 68.60546875 C-13.1924826 67.30297684 -13.18965271 66.00048492 -13.18673706 64.65852356 C-13.17912697 61.20777616 -13.15950135 57.75719902 -13.1373291 54.30651855 C-13.11681388 50.780541 -13.10772324 47.25453575 -13.09765625 43.72851562 C-13.07625272 36.81894079 -13.04214874 29.90947859 -13 23 C-14.98 23 -16.96 23 -19 23 C-19 21.68 -19 20.36 -19 19 C-17.02 19 -15.04 19 -13 19 C-13.20496094 18.39671875 -13.40992188 17.7934375 -13.62109375 17.171875 C-14.02521484 15.97304688 -14.02521484 15.97304688 -14.4375 14.75 C-14.70433594 13.96109375 -14.97117187 13.1721875 -15.24609375 12.359375 C-15.91954708 10.25178012 -16.49150595 8.15246027 -17 6 C-3.89320388 0 -3.89320388 0 0 0 Z " fill="#EFC7CB" transform="translate(860,21)"/>
<path d="M0 0 C17.49 0 34.98 0 53 0 C52.09541479 5.42751124 51.72967134 6.95008213 48.75390625 11.08984375 C48.08665527 12.03102051 47.4194043 12.97219727 46.73193359 13.94189453 C45.65806396 15.42471924 45.65806396 15.42471924 44.5625 16.9375 C43.08618577 19.01617905 41.61092323 21.09560543 40.13671875 23.17578125 C39.4204834 24.1807666 38.70424805 25.18575195 37.96630859 26.22119141 C35.54039776 29.64951486 33.18778895 33.11971814 30.875 36.625 C30.5039917 37.18574219 30.1329834 37.74648437 29.75073242 38.32421875 C28.96213151 39.51702131 28.17415234 40.7102351 27.38671875 41.90380859 C24.39638727 46.42405263 21.3828223 50.92888525 18.375 55.4375 C16.27125 58.593125 14.1675 61.74875 12 65 C32.295 65.495 32.295 65.495 53 66 C53 66.99 53 67.98 53 69 C34.52 69 16.04 69 -3 69 C-2.01152831 63.06916985 -1.3386752 61.58849952 2.1171875 57.0546875 C6.73534945 50.84230606 11.06848145 44.47608859 15.3203125 38.0078125 C15.95515564 37.04333191 16.58999878 36.07885132 17.24407959 35.08514404 C19.20658872 32.0998694 21.16586403 29.11248914 23.125 26.125 C24.47630889 24.06884372 25.8278696 22.01285292 27.1796875 19.95703125 C30.45649528 14.97355275 33.72812393 9.98673158 37 5 C18.685 4.505 18.685 4.505 0 4 C0 2.68 0 1.36 0 0 Z " fill="#B0B4BC" transform="translate(705,156)"/>
<path d="M0 0 C17.49 0 34.98 0 53 0 C53 5.23156473 52.70406644 6.04595026 49.87890625 10.078125 C49.19876465 11.06224365 48.51862305 12.0463623 47.81787109 13.06030273 C47.07359863 14.11290283 46.32932617 15.16550293 45.5625 16.25 C44.79387104 17.35470673 44.026474 18.46027152 43.26025391 19.56665039 C41.65913673 21.87667197 40.05270457 24.18286194 38.44287109 26.48681641 C34.53040322 32.09844433 30.7094022 37.77241107 26.875 43.4375 C25.51926571 45.43690116 24.16253855 47.43562954 22.8046875 49.43359375 C21.95366455 50.68740845 21.95366455 50.68740845 21.08544922 51.96655273 C18.08523104 56.33060224 15.03698193 60.66145439 12 65 C32.295 65.495 32.295 65.495 53 66 C53 66.99 53 67.98 53 69 C34.52 69 16.04 69 -3 69 C-2.13337238 64.66686192 -1.71762755 63.14386619 0.60107422 59.73901367 C1.14609589 58.93014206 1.69111755 58.12127045 2.25265503 57.28788757 C2.84732574 56.42331436 3.44199646 55.55874115 4.0546875 54.66796875 C4.67086945 53.75856033 5.28705139 52.84915192 5.92190552 51.91218567 C7.89867891 48.99871244 9.88666958 46.09309488 11.875 43.1875 C13.17521583 41.27458905 14.47470251 39.36118227 15.7734375 37.44726562 C23.14018555 26.60264918 30.56384214 15.79709714 38 5 C25.46 4.67 12.92 4.34 0 4 C0 2.68 0 1.36 0 0 Z " fill="#B0B4BC" transform="translate(767,156)"/>
<path d="M0 0 C0 32.67 0 65.34 0 99 C-3.63 99 -7.26 99 -11 99 C-11 66.99 -11 34.98 -11 2 C-3 0 -3 0 0 0 Z " fill="#B0B2BA" transform="translate(595,126)"/>
<path d="M0 0 C0 32.67 0 65.34 0 99 C-3.63 99 -7.26 99 -11 99 C-11 67.32 -11 35.64 -11 3 C-2 0 -2 0 0 0 Z " fill="#B0B3BB" transform="translate(622,126)"/>
<path d="M0 0 C11.12912723 -0.58488844 21.38920511 0.27201749 30.4375 7.40625 C35.38097367 12.44859314 37.88276269 17.80161555 39.07885742 24.69287109 C39.25309738 25.68596283 39.42733734 26.67905457 39.6068573 27.70223999 C39.73659439 28.46050079 39.86633148 29.2187616 40 30 C39.46430893 30.15398254 38.92861786 30.30796509 38.37669373 30.46661377 C32.77649092 32.07831416 27.18009538 33.7027538 21.58569336 35.33447266 C19.50037081 35.94090612 17.41411487 36.54413989 15.3269043 37.14404297 C12.31825719 38.00939675 9.31321033 38.88639298 6.30859375 39.765625 C5.38227646 40.02933899 4.45595917 40.29305298 3.50157166 40.5647583 C-1.82976201 42.13904147 -6.29134492 44.03560434 -11 47 C-11.99 46.34 -12.98 45.68 -14 45 C-14.2208564 42.04935852 -14.28060989 39.31631769 -14.1875 36.375 C-14.17396484 35.57320312 -14.16042969 34.77140625 -14.14648438 33.9453125 C-14.11109051 31.96325622 -14.05728234 29.98154449 -14 28 C-13.67 28 -13.34 28 -13 28 C-12.67 32.95 -12.34 37.9 -12 43 C-10.35 41.68 -8.7 40.36 -7 39 C0.781824 35.19367304 9.67777148 33.31668208 18.00195312 31.01806641 C18.89076172 30.7710498 19.77957031 30.5240332 20.6953125 30.26953125 C21.49984863 30.04885986 22.30438477 29.82818848 23.13330078 29.60083008 C24.99325925 29.15889098 24.99325925 29.15889098 26 28 C25.23960441 20.35131499 22.96803267 13.5245388 18 7.625 C14.02270156 5.47063001 10.2027444 5.03724308 5.7421875 4.4921875 C3 4 3 4 0 2 C0 1.34 0 0.68 0 0 Z " fill="#E7BEC1" transform="translate(631,39)"/>
<path d="M0 0 C11.84770119 -0.46093362 21.5613651 -0.07852069 30.953125 7.78125 C36.9415284 14.27249643 39.03358124 21.48644106 40 30 C38.79988281 30.34256836 37.59976563 30.68513672 36.36328125 31.03808594 C31.88067811 32.31988422 27.4011142 33.6120386 22.92236328 34.90722656 C20.98924895 35.46471283 19.05533822 36.01944567 17.12060547 36.57128906 C14.32822522 37.36828992 11.53892747 38.17538602 8.75 38.984375 C7.89446533 39.22621521 7.03893066 39.46805542 6.1574707 39.71722412 C-1.80830788 42.00666248 -1.80830788 42.00666248 -9 46 C-10.2539057 48.40966615 -10.58004825 50.27031359 -11 53 C-11.33 53 -11.66 53 -12 53 C-12.33232818 51.61328513 -12.61427971 50.21444332 -12.875 48.8125 C-13.03742188 48.03519531 -13.19984375 47.25789063 -13.3671875 46.45703125 C-12.89393363 43.29025804 -11.47777727 42.0570667 -8.96582031 40.17163086 C-5.19296283 37.92300405 -1.11292032 36.67404459 3.0625 35.375 C4.45118286 34.9272522 4.45118286 34.9272522 5.86791992 34.47045898 C12.83637602 32.26251717 19.82097689 30.39851099 27 29 C26.43035877 26.78809522 25.84363602 24.58058613 25.25 22.375 C24.92515625 21.14523438 24.6003125 19.91546875 24.265625 18.6484375 C22.43966463 13.38471224 19.97885046 8.78632916 15 6 C12.06666119 5.28563875 12.06666119 5.28563875 8.9375 4.9375 C5.09821798 4.43920011 3.26960277 4.17973518 0 2 C0 1.34 0 0.68 0 0 Z " fill="#EAC0C3" transform="translate(494,39)"/>
<path d="M0 0 C0.33 0 0.66 0 1 0 C1.01458252 1.24088379 1.02916504 2.48176758 1.04418945 3.76025391 C1.10230723 8.37870621 1.17953947 12.99667784 1.26245117 17.61474609 C1.29563713 19.61076029 1.32368868 21.60686689 1.34643555 23.60302734 C1.38009793 26.4779384 1.43241977 29.35200743 1.48828125 32.2265625 C1.49467117 33.11429352 1.5010611 34.00202454 1.50764465 34.91665649 C1.62942734 40.08729334 2.38868834 43.41663341 5 48 C5 48.99 5 49.98 5 51 C-1.93 51 -8.86 51 -16 51 C-15 46 -15 46 -13.93701172 43.98461914 C-12.78376737 41.54201276 -12.86087175 39.93184419 -13.0078125 37.24609375 C-13.38624352 22.09965484 -10.06845506 11.57913327 0 0 Z " fill="#EDC5C9" transform="translate(554,62)"/>
<path d="M0 0 C10.70816284 -0.57025719 20.94359683 -0.10572051 29.875 6.5 C36.49868054 12.89639739 39.00606655 21.15910392 40 30 C38.79988281 30.34256836 37.59976563 30.68513672 36.36328125 31.03808594 C31.88067811 32.31988422 27.4011142 33.6120386 22.92236328 34.90722656 C20.98924895 35.46471283 19.05533822 36.01944567 17.12060547 36.57128906 C14.32822522 37.36828992 11.53892747 38.17538602 8.75 38.984375 C7.89446533 39.22621521 7.03893066 39.46805542 6.1574707 39.71722412 C0.0548033 41.50243866 -6.41523021 43.41523021 -11 48 C-11 47.34 -11 46.68 -11 46 C-11.66 46 -12.32 46 -13 46 C-11.47979151 41.74341624 -8.79113642 40.26673999 -5 38 C-1.59667969 36.71972656 -1.59667969 36.71972656 2.078125 35.640625 C2.73077332 35.44652039 3.38342163 35.25241577 4.05584717 35.0524292 C5.42255629 34.64788919 6.79069191 34.24813981 8.16015625 33.85302734 C10.26094259 33.2468425 12.35721215 32.62671135 14.453125 32.00390625 C24.64963798 29 24.64963798 29 27 29 C26.43035877 26.78809522 25.84363602 24.58058613 25.25 22.375 C24.92515625 21.14523438 24.6003125 19.91546875 24.265625 18.6484375 C22.43966463 13.38471224 19.97885046 8.78632916 15 6 C12.06666119 5.28563875 12.06666119 5.28563875 8.9375 4.9375 C5.09821798 4.43920011 3.26960277 4.17973518 0 2 C0 1.34 0 0.68 0 0 Z " fill="#E8BFC2" transform="translate(764,39)"/>
<path d="M0 0 C-0.99 0.66 -1.98 1.32 -3 2 C-2.505 2.99 -2.505 2.99 -2 4 C-3.27061279 4.3853894 -3.27061279 4.3853894 -4.56689453 4.77856445 C-7.73277445 5.74159365 -10.89711038 6.70940807 -14.06054688 7.68041992 C-15.42552525 8.09833962 -16.79107814 8.51438793 -18.15722656 8.9284668 C-20.1298265 9.52672612 -22.10020756 10.13186325 -24.0703125 10.73828125 C-25.25383301 11.09962158 -26.43735352 11.46096191 -27.65673828 11.83325195 C-30.98430345 12.99452214 -33.97450745 14.1876559 -37 16 C-38.44967902 19.5693717 -38.44967902 19.5693717 -39 23 C-39.33 23 -39.66 23 -40 23 C-40.33232818 21.61328513 -40.61427971 20.21444332 -40.875 18.8125 C-41.03742188 18.03519531 -41.19984375 17.25789063 -41.3671875 16.45703125 C-40.89436048 13.29311429 -39.48442276 12.05655942 -36.97460938 10.17163086 C-33.16368618 7.91042655 -29.02790474 6.67458136 -24.8125 5.375 C-23.87937988 5.07722656 -22.94625977 4.77945313 -21.98486328 4.47265625 C-19.32808447 3.63167485 -16.66578791 2.81189906 -14 2 C-12.16115234 1.43152344 -12.16115234 1.43152344 -10.28515625 0.8515625 C-3.44764117 -1.14921372 -3.44764117 -1.14921372 0 0 Z " fill="#E5B9BB" transform="translate(522,69)"/>
<path d="M0 0 C1.12523543 3.37570628 0.94984592 5.5835385 0 9 C-5.73743576 18.65996837 -13.69578634 28.16332828 -24 33 C-24.66 33 -25.32 33 -26 33 C-26 32.34 -26 31.68 -26 31 C-26.66 31.33 -27.32 31.66 -28 32 C-29.87379605 32.07033769 -31.75001102 32.0843022 -33.625 32.0625 C-34.62789063 32.05347656 -35.63078125 32.04445312 -36.6640625 32.03515625 C-37.43492187 32.02355469 -38.20578125 32.01195312 -39 32 C-39 31.34 -39 30.68 -39 30 C-38.29875 29.97421875 -37.5975 29.9484375 -36.875 29.921875 C-30.36818742 29.53288077 -25.46833329 28.60252859 -20 25 C-19.44054687 24.63519531 -18.88109375 24.27039063 -18.3046875 23.89453125 C-10.49450717 17.99148798 -4.86832728 8.36151017 0 0 Z " fill="#E3B5B7" transform="translate(538,78)"/>
<path d="M0 0 C0.33 0 0.66 0 1 0 C1.33 4.95 1.66 9.9 2 15 C3.65 13.68 5.3 12.36 7 11 C13.32347915 7.99957367 20.30326621 6.25348447 27 4.25 C27.74217773 4.02707275 28.48435547 3.80414551 29.24902344 3.57446289 C32.26096189 2.69419379 34.84503938 2 38 2 C38 2.66 38 3.32 38 4 C37.34 4.33 36.68 4.66 36 5 C36.495 5.99 36.495 5.99 37 7 C36.21874756 7.22139648 35.43749512 7.44279297 34.63256836 7.67089844 C31.06476266 8.68777729 27.50117606 9.71874638 23.9375 10.75 C22.09381836 11.27207031 22.09381836 11.27207031 20.21289062 11.8046875 C13.97318386 13.6210981 8.43947796 15.41139938 3 19 C2.01 18.34 1.02 17.68 0 17 C-0.2208564 14.04935852 -0.28060989 11.31631769 -0.1875 8.375 C-0.17396484 7.57320313 -0.16042969 6.77140625 -0.14648438 5.9453125 C-0.11109051 3.96325622 -0.05728234 1.98154449 0 0 Z " fill="#E4B7BA" transform="translate(617,67)"/>
<path d="M0 0 C0 0.66 0 1.32 0 2 C-0.66 2.33 -1.32 2.66 -2 3 C-1.505 3.99 -1.505 3.99 -1 5 C-2.27061279 5.3853894 -2.27061279 5.3853894 -3.56689453 5.77856445 C-6.73277445 6.74159365 -9.89711038 7.70940807 -13.06054688 8.68041992 C-14.42552525 9.09833962 -15.79107814 9.51438793 -17.15722656 9.9284668 C-19.1298265 10.52672612 -21.10020756 11.13186325 -23.0703125 11.73828125 C-24.25383301 12.09962158 -25.43735352 12.46096191 -26.65673828 12.83325195 C-30.92412883 14.32250706 -34.77566609 15.77566609 -38 19 C-38 18.34 -38 17.68 -38 17 C-38.66 17 -39.32 17 -40 17 C-38.47979151 12.74341624 -35.79113642 11.26673999 -32 9 C-28.59667969 7.71972656 -28.59667969 7.71972656 -24.921875 6.640625 C-24.26922668 6.44652039 -23.61657837 6.25241577 -22.94415283 6.0524292 C-21.57744371 5.64788919 -20.20930809 5.24813981 -18.83984375 4.85302734 C-16.73905741 4.2468425 -14.64278785 3.62671135 -12.546875 3.00390625 C-2.35036202 0 -2.35036202 0 0 0 Z " fill="#E5B9BB" transform="translate(791,68)"/>
<path d="M0 0 C2 3.7109375 2 3.7109375 2 6.3125 C-1.0143107 14.41346001 -8.59230338 19.18293362 -16 23 C-18.83984375 23.6953125 -18.83984375 23.6953125 -21 24 C-21.66 22.68 -22.32 21.36 -23 20 C-22.443125 19.78085938 -21.88625 19.56171875 -21.3125 19.3359375 C-10.9212856 15.01796665 -5.23606845 10.03579787 0 0 Z " fill="#DDB1B2" transform="translate(807,87)"/>
<path d="M0 0 C0.99 0 1.98 0 3 0 C2.39744913 5.66990493 -0.46090981 7.67016248 -4.64453125 11.1953125 C-8.32921839 14.01840613 -11.30498731 16 -16 16 C-16 15.34 -16 14.68 -16 14 C-16.67546875 14.02320312 -17.3509375 14.04640625 -18.046875 14.0703125 C-19.38492188 14.09738281 -19.38492188 14.09738281 -20.75 14.125 C-21.63171875 14.14820312 -22.5134375 14.17140625 -23.421875 14.1953125 C-26.1135858 13.99139502 -27.69904974 13.36551721 -30 12 C-29.67 11.34 -29.34 10.68 -29 10 C-28.01 10.33 -27.02 10.66 -26 11 C-17.83212733 11.85848512 -11.54250164 11.19907215 -5 6 C-3.20607569 4.08018627 -1.63187443 2.06384119 0 0 Z " fill="#DAACAD" transform="translate(661,96)"/>
<path d="M0 0 C0.33 4.29 0.66 8.58 1 13 C1.66 12.29875 2.32 11.5975 3 10.875 C12.52439024 1.40472561 12.52439024 1.40472561 19 1 C19 1.66 19 2.32 19 3 C16.69 3.66 14.38 4.32 12 5 C12.33 6.32 12.66 7.64 13 9 C4 15 4 15 2 15 C1.01 15.33 0.02 15.66 -1 16 C-1.33 11.71 -1.66 7.42 -2 3 C-3.65 3.33 -5.3 3.66 -7 4 C-7 3.34 -7 2.68 -7 2 C-2.25 0 -2.25 0 0 0 Z " fill="#D7A9AA" transform="translate(555,38)"/>
<path d="M0 0 C0.66 0 1.32 0 2 0 C1.12552979 5.11228739 -2.1767403 7.74985221 -6 11 C-11.81924198 15 -11.81924198 15 -15 15 C-15 14.34 -15 13.68 -15 13 C-15.99 13.495 -15.99 13.495 -17 14 C-18.87379605 14.07033769 -20.75001102 14.0843022 -22.625 14.0625 C-23.62789063 14.05347656 -24.63078125 14.04445313 -25.6640625 14.03515625 C-26.43492187 14.02355469 -27.20578125 14.01195313 -28 14 C-28 13.34 -28 12.68 -28 12 C-26.93072266 11.92652344 -26.93072266 11.92652344 -25.83984375 11.8515625 C-17.52695194 11.20264228 -10.76211955 10.25942632 -4 5 C-2.64843325 3.34808509 -1.31037934 1.68477344 0 0 Z " fill="#E8BDC0" transform="translate(527,96)"/>
<path d="M0 0 C0.33 0 0.66 0 1 0 C1 16.33333333 1 32.66666667 1 49 C0.67 49 0.34 49 0 49 C-0.33 38.11 -0.66 27.22 -1 16 C-2.65 16.66 -4.3 17.32 -6 18 C-6 17.34 -6 16.68 -6 16 C-6.66 16 -7.32 16 -8 16 C-8 15.34 -8 14.68 -8 14 C-3.61538462 11 -3.61538462 11 -1 11 C-0.67 7.37 -0.34 3.74 0 0 Z " fill="#D1A0A1" transform="translate(919,50)"/>
<path d="M0 0 C0.33 0.99 0.66 1.98 1 3 C-0.40445835 5.2636564 -2.1967913 7.0208685 -4 9 C-3.34 9.33 -2.68 9.66 -2 10 C-6.42170487 11.41494556 -10.31074407 12.63944399 -15 12 C-16.875 10 -16.875 10 -18 8 C-17.67 7.34 -17.34 6.68 -17 6 C-16.40832031 6.10699219 -15.81664062 6.21398437 -15.20703125 6.32421875 C-10.07024352 7.1178722 -10.07024352 7.1178722 -5.125 5.8125 C-3.03313004 4.02825798 -1.50400085 2.29558025 0 0 Z " fill="#E4BABC" transform="translate(715,102)"/>
<path d="M0 0 C2 3 2 3 2 5 C7.4389165 5.21755666 11.87080814 5.10428384 17 3 C17.33 3.99 17.66 4.98 18 6 C11.25 10 11.25 10 9 10 C9 9.34 9 8.68 9 8 C7.88625 7.896875 6.7725 7.79375 5.625 7.6875 C3.830625 7.3471875 3.830625 7.3471875 2 7 C0 4 0 4 0 0 Z " fill="#D7A9A9" transform="translate(860,101)"/>
<path d="M0 0 C1.04285156 -0.00257812 2.08570313 -0.00515625 3.16015625 -0.0078125 C5.9375 0.125 5.9375 0.125 8.9375 1.125 C8.9375 1.785 8.9375 2.445 8.9375 3.125 C8.2775 3.125 7.6175 3.125 6.9375 3.125 C6.9375 3.785 6.9375 4.445 6.9375 5.125 C5.3329444 4.98351011 3.72886233 4.83664314 2.125 4.6875 C1.23167969 4.60628906 0.33835937 4.52507813 -0.58203125 4.44140625 C-3.0625 4.125 -3.0625 4.125 -6.0625 3.125 C-7.3825 3.125 -8.7025 3.125 -10.0625 3.125 C-10.0625 2.465 -10.0625 1.805 -10.0625 1.125 C-6.66481132 0.09341259 -3.54110037 -0.00877596 0 0 Z " fill="#D7A8A9" transform="translate(704.0625,38.875)"/>
<path d="M0 0 C0.33 0.99 0.66 1.98 1 3 C-0.14453125 4.7890625 -0.14453125 4.7890625 -1.8125 6.625 C-2.35519531 7.23601562 -2.89789062 7.84703125 -3.45703125 8.4765625 C-5 10 -5 10 -7 11 C-6.34 11.66 -5.68 12.32 -5 13 C-7.31 13.33 -9.62 13.66 -12 14 C-12 13.67 -12 13.34 -12 13 C-14.97 12.505 -14.97 12.505 -18 12 C-18 11.34 -18 10.68 -18 10 C-16.89591797 9.85304688 -16.89591797 9.85304688 -15.76953125 9.703125 C-8.08147808 8.59126289 -8.08147808 8.59126289 -2 4 C-0.68834743 1.88339573 -0.68834743 1.88339573 0 0 Z " fill="#D7A9AA" transform="translate(918,99)"/>
<path d="M0 0 C-0.1875 1.8125 -0.1875 1.8125 -1 4 C-5.17857143 7 -5.17857143 7 -8 7 C-8 6.34 -8 5.68 -8 5 C-9.98 5 -11.96 5 -14 5 C-14.66 3.68 -15.32 2.36 -16 1 C-15.01 1.495 -15.01 1.495 -14 2 C-8.6543474 2.2969807 -4.9265186 0 0 0 Z " fill="#D6A7A7" transform="translate(841,104)"/>
<path d="M0 0 C0.66 0 1.32 0 2 0 C0.4902946 4.19886815 -1.631749 7.86668864 -4 11.625 C-4.35578125 12.19734375 -4.7115625 12.7696875 -5.078125 13.359375 C-6.68206022 15.93285315 -8.31781774 18.47672661 -10 21 C-10.66 21 -11.32 21 -12 21 C-10.36530185 16.39068718 -7.97080462 12.40413934 -5.4375 8.25 C-5.02564453 7.56550781 -4.61378906 6.88101563 -4.18945312 6.17578125 C-1.14773261 1.14773261 -1.14773261 1.14773261 0 0 Z " fill="#CE9C9C" transform="translate(553,60)"/>
<path d="M0 0 C0 3 0 3 -1 6 C-1.66 6 -2.32 6 -3 6 C-3 5.34 -3 4.68 -3 4 C-3.99 4.495 -3.99 4.495 -5 5 C-6.87379605 5.07033769 -8.75001102 5.0843022 -10.625 5.0625 C-11.62789063 5.05347656 -12.63078125 5.04445313 -13.6640625 5.03515625 C-14.43492187 5.02355469 -15.20578125 5.01195313 -16 5 C-16 4.34 -16 3.68 -16 3 C-15.26394531 2.95101562 -14.52789062 2.90203125 -13.76953125 2.8515625 C-12.79371094 2.77679688 -11.81789063 2.70203125 -10.8125 2.625 C-9.84957031 2.55539063 -8.88664062 2.48578125 -7.89453125 2.4140625 C-4.98491062 1.99784147 -2.67109226 1.20125904 0 0 Z " fill="#E1AFB1" transform="translate(515,105)"/>
<path d="M0 0 C0 0.66 0 1.32 0 2 C-2.31 2.66 -4.62 3.32 -7 4 C-6.67 5.32 -6.34 6.64 -6 8 C-8.31 9.32 -10.62 10.64 -13 12 C-13.66 11.34 -14.32 10.68 -15 10 C-14.278125 9.443125 -13.55625 8.88625 -12.8125 8.3125 C-9.93981825 6.02680364 -9.93981825 6.02680364 -7.3125 3.3125 C-4.53984845 0.53984845 -3.90844498 0 0 0 Z " fill="#DDB0B1" transform="translate(574,39)"/>
<path d="M0 0 C0.97591583 3.38317487 0.85856655 5.5657338 0 9 C-0.33 8.34 -0.66 7.68 -1 7 C-1.66 7 -2.32 7 -3 7 C-3.268125 7.78375 -3.53625 8.5675 -3.8125 9.375 C-5 12 -5 12 -8 14 C-6.6744419 10.37723685 -5.05653045 7.36494652 -2.875 4.1875 C-2.33617187 3.39730469 -1.79734375 2.60710937 -1.2421875 1.79296875 C-0.83226562 1.20128906 -0.42234375 0.60960938 0 0 Z " fill="#D7ABAC" transform="translate(538,78)"/>
<path d="M0 0 C-0.99 0.66 -1.98 1.32 -3 2 C-2.67 2.66 -2.34 3.32 -2 4 C-3.98 4.33 -5.96 4.66 -8 5 C-8 4.34 -8 3.68 -8 3 C-8.66 3 -9.32 3 -10 3 C-10 2.34 -10 1.68 -10 1 C-3.375 -1.125 -3.375 -1.125 0 0 Z " fill="#E1B3B5" transform="translate(522,69)"/>
<path d="M0 0 C0.33 0.99 0.66 1.98 1 3 C-0.40445835 5.2636564 -2.1967913 7.0208685 -4 9 C-3.34 9.33 -2.68 9.66 -2 10 C-3.65 10.33 -5.3 10.66 -7 11 C-7.33 9.68 -7.66 8.36 -8 7 C-7.236875 6.5875 -6.47375 6.175 -5.6875 5.75 C-3.0633358 4.04124191 -1.69678024 2.58982247 0 0 Z " fill="#D5ABAB" transform="translate(715,102)"/>
<path d="M0 0 C0.33 1.32 0.66 2.64 1 4 C-1.31 4.66 -3.62 5.32 -6 6 C-6.66 4.68 -7.32 3.36 -8 2 C-2.25 0 -2.25 0 0 0 Z " fill="#DFB2B3" transform="translate(792,105)"/>
<path d="M0 0 C0 0.66 0 1.32 0 2 C0.66 2.66 1.32 3.32 2 4 C0.02 4.33 -1.96 4.66 -4 5 C-4 4.34 -4 3.68 -4 3 C-5.65 3.33 -7.3 3.66 -9 4 C-9 3.34 -9 2.68 -9 2 C-5.62902617 0.50178941 -3.79557881 0 0 0 Z " fill="#E2B1B2" transform="translate(901,40)"/>
<path d="M0 0 C0 0.66 0 1.32 0 2 C-0.99 2 -1.98 2 -3 2 C-3 2.66 -3 3.32 -3 4 C-6.96 3.67 -10.92 3.34 -15 3 C-15 2.67 -15 2.34 -15 2 C-13.2508503 1.66223316 -11.50063855 1.32996329 -9.75 1 C-8.77546875 0.814375 -7.8009375 0.62875 -6.796875 0.4375 C-4 0 -4 0 0 0 Z " fill="#E1B4B6" transform="translate(649,40)"/>
<path d="M0 0 C0.99 0 1.98 0 3 0 C2.67 1.65 2.34 3.3 2 5 C1.01 5 0.02 5 -1 5 C-3.67398476 6.93897879 -3.67398476 6.93897879 -6 9 C-4.4705003 5.55862568 -2.54630448 2.7777867 0 0 Z " fill="#D1A29F" transform="translate(661,96)"/>
<path d="M0 0 C0 0.66 0 1.32 0 2 C-0.99 2.33 -1.98 2.66 -3 3 C-2.34 3.66 -1.68 4.32 -1 5 C-2.98 5.33 -4.96 5.66 -7 6 C-6.67 4.35 -6.34 2.7 -6 1 C-3 0 -3 0 0 0 Z " fill="#D9ACAD" transform="translate(641,73)"/>
<path d="M0 0 C0 0.66 0 1.32 0 2 C-0.99 2.33 -1.98 2.66 -3 3 C-2.34 3.66 -1.68 4.32 -1 5 C-2.98 5.33 -4.96 5.66 -7 6 C-6.67 4.35 -6.34 2.7 -6 1 C-3 0 -3 0 0 0 Z " fill="#DFB0B1" transform="translate(781,71)"/>
<path d="M0 0 C0 0.66 0 1.32 0 2 C-0.66 2 -1.32 2 -2 2 C-2 2.66 -2 3.32 -2 4 C-5.3 3.67 -8.6 3.34 -12 3 C-12 2.67 -12 2.34 -12 2 C-10.56342755 1.66269158 -9.12569907 1.33030409 -7.6875 1 C-6.88699219 0.814375 -6.08648438 0.62875 -5.26171875 0.4375 C-3 0 -3 0 0 0 Z " fill="#E1B3B5" transform="translate(713,40)"/>
<path d="M0 0 C2.31 0 4.62 0 7 0 C7 0.66 7 1.32 7 2 C4.35261084 3.4606285 3.10551666 4 0 4 C0 2.68 0 1.36 0 0 Z " fill="#E5BABC" transform="translate(645,108)"/>
<path d="M0 0 C0 0.66 0 1.32 0 2 C-0.99 2.495 -0.99 2.495 -2 3 C-1.34 3.66 -0.68 4.32 0 5 C-1.98 5.33 -3.96 5.66 -6 6 C-5.67 4.35 -5.34 2.7 -5 1 C-2 0 -2 0 0 0 Z " fill="#E1B5B7" transform="translate(767,75)"/>
<path d="M0 0 C0.99 0.33 1.98 0.66 3 1 C3 1.99 3 2.98 3 4 C0.69 4 -1.62 4 -4 4 C-3.67 3.34 -3.34 2.68 -3 2 C-2.01 2 -1.02 2 0 2 C0 1.34 0 0.68 0 0 Z " fill="#EBC2C5" transform="translate(781,71)"/>
<path d="M0 0 C0.99 0.33 1.98 0.66 3 1 C3 1.99 3 2.98 3 4 C0.69 4 -1.62 4 -4 4 C-3.67 3.34 -3.34 2.68 -3 2 C-2.01 2 -1.02 2 0 2 C0 1.34 0 0.68 0 0 Z " fill="#EBC3C6" transform="translate(511,71)"/>
<path d="M0 0 C0 0.66 0 1.32 0 2 C-0.99 2.495 -0.99 2.495 -2 3 C-1.67 3.66 -1.34 4.32 -1 5 C-1.99 5 -2.98 5 -4 5 C-4 4.34 -4 3.68 -4 3 C-4.66 3 -5.32 3 -6 3 C-6 2.34 -6 1.68 -6 1 C-3 0 -3 0 0 0 Z " fill="#D9A9AA" transform="translate(655,69)"/>
</svg>
