<?xml version="1.0" encoding="UTF-8"?>
<svg version="1.1" xmlns="http://www.w3.org/2000/svg" width="370" height="250">
<path d="M0 0 C0.99 0.66 1.98 1.32 3 2 C3 2.66 3 3.32 3 4 C3.53625 4.226875 4.0725 4.45375 4.625 4.6875 C13.74165819 9.72565321 20.77815844 19.145573 26 28 C26 28.66 26 29.32 26 30 C26.66 30 27.32 30 28 30 C28.50660156 31.03060547 28.50660156 31.03060547 29.0234375 32.08203125 C29.46945313 32.98308594 29.91546875 33.88414063 30.375 34.8125 C31.03628906 36.15248047 31.03628906 36.15248047 31.7109375 37.51953125 C33.01866905 40.14556381 33.01866905 40.14556381 35 43 C35 43.99 35 44.98 35 46 C35.66 46 36.32 46 37 46 C37.556875 47.1446875 37.556875 47.1446875 38.125 48.3125 C42.2359035 56.51509718 46.80258319 64.44484928 51.58203125 72.2734375 C53.00473485 75.00910447 53.82803993 76.92437127 54 80 C52.9609375 82.359375 52.9609375 82.359375 51.375 84.75 C50.53582031 86.05710938 50.53582031 86.05710938 49.6796875 87.390625 C49.12539062 88.25171875 48.57109375 89.1128125 48 90 C47.1524847 91.49203293 46.31830612 92.99174951 45.5 94.5 C45.09910156 95.22058594 44.69820312 95.94117187 44.28515625 96.68359375 C43.34492018 98.37830496 42.41692546 100.07982376 41.49609375 101.78515625 C40.98175781 102.70167969 40.46742188 103.61820312 39.9375 104.5625 C39.47214844 105.40941406 39.00679687 106.25632812 38.52734375 107.12890625 C38.02332031 107.74636719 37.51929688 108.36382812 37 109 C35.68 109 34.36 109 33 109 C32.67837891 108.40687012 32.35675781 107.81374023 32.02539062 107.20263672 C24.48757301 93.27811877 24.48757301 93.27811877 16.6875 79.5 C14.09233269 75.02132982 11.74207245 70.47484794 9.5 65.8125 C6.30382628 59.31094388 2.4329731 53.70858373 -2 48 C-3.06411473 46.5636949 -4.12675972 45.126299 -5.1875 43.6875 C-6.12377213 42.45739779 -7.06115529 41.22813988 -8 40 C-9.0828125 38.5459375 -9.0828125 38.5459375 -10.1875 37.0625 C-19.3430341 26.36651096 -33.18757724 17.0271672 -47.42578125 15.7890625 C-53.35416241 15.55516582 -57.59979532 16.57921859 -63 19 C-64.175625 19.495 -64.175625 19.495 -65.375 20 C-67.33538439 21.05034551 -67.33538439 21.05034551 -69 24 C-69.66 24 -70.32 24 -71 24 C-71.185625 25.051875 -71.185625 25.051875 -71.375 26.125 C-72.03891783 29.17902201 -72.99338226 32.04306038 -74 35 C-76.14405869 42.35974756 -75.56924305 50.80870162 -73 58 C-71.78104159 60.2201092 -70.47403 62.29582413 -69.0234375 64.37109375 C-68 66 -68 66 -68 68 C-67.01 68.33 -66.02 68.66 -65 69 C-65 69.66 -65 70.32 -65 71 C-64.41863281 71.26039062 -63.83726563 71.52078125 -63.23828125 71.7890625 C-60.85649744 73.07763664 -59.16420468 74.5311492 -57.1875 76.375 C-53.62386017 79.56317316 -50.20882557 81.74527202 -46 84 C-44.78980179 84.76905383 -43.58433094 85.54557985 -42.3828125 86.328125 C-37.88528349 89.15641464 -33.1956406 91.40597496 -28.375 93.625 C-26.73672219 94.38746892 -25.09869546 95.1504776 -23.4609375 95.9140625 C-22.69749023 96.26887695 -21.93404297 96.62369141 -21.14746094 96.98925781 C-18.40656654 98.27931043 -15.70060345 99.62784873 -13 101 C-13 101.66 -13 102.32 -13 103 C-15.6598868 104.82064665 -18.42577777 106.41596707 -21.203125 108.05078125 C-24.12557705 110.08751808 -25.88564278 112.15782483 -28 115 C-28.804375 115.7425 -29.60875 116.485 -30.4375 117.25 C-33.76638264 120.82245942 -35.77061094 124.68693358 -38 129 C-38.56074219 129.9590625 -38.56074219 129.9590625 -39.1328125 130.9375 C-43.28763905 138.32385832 -44.96396863 146.44838702 -42.9375 154.75 C-40.24819718 162.87637157 -36.7408331 168.03101987 -29.57421875 172.7734375 C-29.05472656 173.17820313 -28.53523438 173.58296875 -28 174 C-28 174.66 -28 175.32 -28 176 C-27.01 176.185625 -27.01 176.185625 -26 176.375 C-23 177 -23 177 -19.5 178.125 C-9.76387086 180.5041293 -1.18046033 178.22635443 7.44140625 173.5703125 C9.99888695 172.06095182 9.99888695 172.06095182 12.21484375 170.3046875 C14 169 14 169 16 169 C16.33 168.01 16.66 167.02 17 166 C17.66 166 18.32 166 19 166 C19.33 165.01 19.66 164.02 20 163 C20.66 163 21.32 163 22 163 C22.33 162.01 22.66 161.02 23 160 C23.66 160 24.32 160 25 160 C25.26554688 159.42765625 25.53109375 158.8553125 25.8046875 158.265625 C27.05756105 155.89089735 28.51225109 153.89533111 30.125 151.75 C33.09219568 147.55882608 35.50487391 143.23549117 37.75 138.62890625 C38.09386749 137.93235428 38.43773499 137.23580231 38.79202271 136.5181427 C39.50955771 135.06467409 40.22553876 133.61043735 40.94000244 132.15545654 C42.59055227 128.79913897 44.26051294 125.45255165 45.9296875 122.10546875 C46.58138659 120.79695956 47.23307926 119.48844717 47.88476562 118.17993164 C48.5480715 116.84906846 49.21148493 115.51825889 49.875 114.1875 C50.22038818 113.49477997 50.56577637 112.80205994 50.92163086 112.08834839 C55.40116039 103.11189185 59.95742535 94.18763139 64.68823242 85.34033203 C67.35571323 80.31966057 69.80837222 75.22539642 72.1875 70.0625 C78.7965106 55.76565743 87.43344937 43.30730706 96.91796875 30.78515625 C98.64732628 28.47177554 100.30596083 26.13233595 101.9375 23.75 C102.618125 22.8425 103.29875 21.935 104 21 C104.66 21 105.32 21 106 21 C106.27585938 20.41734375 106.55171875 19.8346875 106.8359375 19.234375 C111.88944574 9.53435247 119.95202607 2.08337758 129 -3.8125 C129.56912109 -4.18560303 130.13824219 -4.55870605 130.72460938 -4.94311523 C137.41487308 -9.14741578 144.37098094 -11.36572014 152.125 -12.6875 C152.86290771 -12.81342529 153.60081543 -12.93935059 154.36108398 -13.0690918 C170.52145072 -15.63867535 192.06769762 -15.09288562 206.5234375 -6.5 C211.97259689 -2.48287226 217.07082304 2.47559861 221 8 C221 8.99 221 9.98 221 11 C221.66 11 222.32 11 223 11 C231.01365474 31.40117446 231.80624367 50.43737239 223.75 71.1875 C221.24484471 76.90595478 218.13376456 82.29354765 214 87 C213.34 87 212.68 87 212 87 C211.67 87.99 211.34 88.98 211 90 C210.34 90 209.68 90 209 90 C208.67 90.99 208.34 91.98 208 93 C207.34 93 206.68 93 206 93 C205.67 93.99 205.34 94.98 205 96 C202.9067148 97.75305427 200.82267886 99.38963187 198.625 101 C193.54998425 104.6949663 193.54998425 104.6949663 189 109 C189.60457031 109.97710937 190.20914062 110.95421875 190.83203125 111.9609375 C193.15091839 116.02231145 194.4535961 120.13374849 195.6875 124.625 C196.00557617 125.73101562 196.00557617 125.73101562 196.33007812 126.859375 C201.58112726 145.34571832 200.04780267 163.26586368 190.953125 180.3046875 C190.63859375 180.86414063 190.3240625 181.42359375 190 182 C189.34 182 188.68 182 188 182 C187.74476563 182.74378906 187.48953125 183.48757812 187.2265625 184.25390625 C182.51821787 194.79520011 169.91302655 201.56004993 159.76953125 205.67578125 C141.13190283 212.2230932 122.26511145 211.71260374 104.125 204.125 C96.42348532 200.36959475 88.31227819 195.85384458 82 190 C82 189.34 82 188.68 82 188 C81.01 187.67 80.02 187.34 79 187 C77.18911634 184.95190793 75.52349358 182.9210708 73.875 180.75 C73.41996094 180.17636719 72.96492187 179.60273438 72.49609375 179.01171875 C70.01489542 175.77953458 68.06247896 173.15137968 68 169 C69.00390625 166.9296875 69.00390625 166.9296875 70.5625 164.875 C72.99328661 161.49328066 75.10397601 158.11483281 77.0625 154.4375 C78.89313351 151.03501364 80.72370934 147.64036083 82.6875 144.3125 C83.06261719 143.66925781 83.43773437 143.02601563 83.82421875 142.36328125 C84.40623047 141.68845703 84.40623047 141.68845703 85 141 C85.99 141 86.98 141 88 141 C89.31495542 143.60295276 90.62704986 146.20728033 91.9375 148.8125 C92.31068359 149.55048828 92.68386719 150.28847656 93.06835938 151.04882812 C93.42607422 151.76103516 93.78378906 152.47324219 94.15234375 153.20703125 C94.6472229 154.18893433 94.6472229 154.18893433 95.15209961 155.19067383 C96 157 96 157 97 160 C97.99 160.33 98.98 160.66 100 161 C100 161.66 100 162.32 100 163 C100.99 163.33 101.98 163.66 103 164 C103 164.66 103 165.32 103 166 C103.54527344 166.25910156 104.09054688 166.51820313 104.65234375 166.78515625 C107.38375369 168.19858136 109.9477598 169.81851971 112.5625 171.4375 C121.86199941 176.84811784 131.19808338 179.35968181 142 178 C144.99647886 177.0632856 147.41323061 175.76344098 150 174 C151.010625 173.319375 152.02125 172.63875 153.0625 171.9375 C160.47556956 165.2940934 164.99189021 155.81646906 166 146 C165.73463164 132.94719368 158.60526614 123.26665603 149.54785156 114.38330078 C146.11319913 111.31378332 142.3021058 108.71828416 138.47070312 106.171875 C136.95141831 105.15677017 135.47137191 104.08338768 134 103 C134 102.34 134 101.68 134 101 C134.680625 100.8040625 135.36125 100.608125 136.0625 100.40625 C151.78204491 95.55660317 167.70442213 87.62826544 179.2734375 75.6953125 C182 73 182 73 184 73 C184.25652344 72.42507812 184.51304687 71.85015625 184.77734375 71.2578125 C186.11640179 68.78504717 187.67150867 66.95153746 189.5625 64.875 C192.07679216 62.13961955 192.07679216 62.13961955 194 59 C194.66 59 195.32 59 196 59 C196.103125 58.34 196.20625 57.68 196.3125 57 C196.88433843 54.50470505 197.59468817 52.47148716 198.5625 50.125 C200.97156895 43.77597591 200.26542029 38.39939838 197.96875 32.13671875 C194.84524684 25.24737911 188.96070889 20.92639198 182.05859375 18.24609375 C171.87474404 15.30409272 161.41317504 16.75897395 152.13671875 21.6796875 C145.2170482 25.95546199 139.44442764 31.19446545 134.375 37.53125 C133.92125 38.0159375 133.4675 38.500625 133 39 C132.34 39 131.68 39 131 39 C130.71125 39.598125 130.4225 40.19625 130.125 40.8125 C129 43 129 43 127 46 C126.34 46 125.68 46 125 46 C124.7525 46.556875 124.505 47.11375 124.25 47.6875 C123 50 123 50 120.9375 52.5625 C118.83615651 54.92026019 118.83615651 54.92026019 118 58 C117.01 58.495 117.01 58.495 116 59 C114.9250275 60.66988503 114.9250275 60.66988503 113.875 62.75 C111.7732636 66.65146375 109.53092662 70.42604705 107.1875 74.1875 C100.9817934 84.22374595 95.20785583 94.38412899 90 104.97021484 C87.76127103 109.51435367 85.41716023 113.98607848 83 118.4375 C80.16768628 123.6708982 77.5597646 128.97412577 75.0625 134.375 C68.52732251 148.46197372 61.04913792 161.97292444 53.03222656 175.26757812 C52.10524065 176.82337094 51.21790658 178.40262764 50.3359375 179.984375 C49.67464844 180.98210937 49.67464844 180.98210937 49 182 C48.34 182 47.68 182 47 182 C47 182.99 47 183.98 47 185 C45.37946188 186.38903267 43.70294787 187.71332828 42 189 C41.175 189.825 40.35 190.65 39.5 191.5 C29.61110389 201.38889611 17.42836119 206.05551298 4 209 C3.21496094 209.185625 2.42992188 209.37125 1.62109375 209.5625 C-16.9959296 212.66996142 -38.20859736 207.93821079 -53.6875 197.3125 C-66.0115485 187.82973069 -74.83901868 175.62693101 -77 160 C-78.68161178 141.06477796 -73.61506966 123.83059985 -65 107 C-65.87914062 106.74605469 -66.75828125 106.49210937 -67.6640625 106.23046875 C-73.16211184 104.20249973 -77.40608515 100.57012811 -82 97 C-82.71671875 96.46375 -83.4334375 95.9275 -84.171875 95.375 C-98.08929573 84.24106342 -105.46317946 66.86014264 -107.59765625 49.59375 C-109.05129817 35.15840205 -105.89658808 20.13519833 -97.0625 8.43359375 C-71.7605532 -21.1606476 -30.38215418 -21.84621563 0 0 Z " fill="#F2CCD0" transform="translate(124,27)"/>
</svg>
